g Circle
v 0.025031956 0.6413575 0.144357
v 1.2050702E-07 0.6413149 0.13764983
v -0.02503171 0.6413575 0.144357
v 0.043356527 0.64147455 0.1626812
v -0.043356284 0.64147455 0.1626812
v 0.050063778 0.6416346 0.1877125
v -0.050063543 0.6416346 0.1877125
v 0.043356527 0.64179426 0.21274377
v -0.043356284 0.64179426 0.21274377
v 0.025031956 0.6419113 0.23106799
v -0.02503171 0.6419113 0.23106799
v 1.2050702E-07 0.6419541 0.23777507
v 3.3564692E-08 0.7779059 0.23596188
v 1.2499234E-07 0.69839126 0.23741469
v -0.025031706 0.6983485 0.23070759
v -0.025031798 0.77817947 0.22926024
v -0.043356277 0.69823146 0.21238337
v 0.025031868 0.77817947 0.22926024
v 0.025031962 0.6983485 0.23070759
v -0.04335637 0.7789267 0.2109509
v -0.05006354 0.6980718 0.1873521
v 0.04335644 0.7789267 0.2109509
v 0.043356534 0.69823146 0.21238337
v -0.05006363 0.77994764 0.18593995
v -0.043356277 0.69791174 0.16232081
v 0.050063696 0.77994764 0.18593995
v 0.050063785 0.6980718 0.1873521
v -0.04335637 0.78096825 0.16092895
v -0.025031706 0.6977947 0.1439966
v 0.04335644 0.78096825 0.16092895
v 0.043356534 0.69791174 0.16232081
v -0.025031798 0.78171545 0.14261961
v 1.2499234E-07 0.69775206 0.13728943
v 0.025031868 0.78171545 0.14261961
v 0.025031962 0.6977947 0.1439966
v 3.3564692E-08 0.7819892 0.1359179
v 0.050063707 0.8084685 0.18033569
v 0.043356452 0.8026454 0.15768369
v 0.025031881 0.79838246 0.14110124
v 4.4609475E-08 0.79682225 0.1350316
v -0.025031785 0.79838246 0.14110124
v -0.043356363 0.8026454 0.15768369
v 0.043356452 0.8142916 0.20298763
v -0.050063618 0.8084685 0.18033569
v 0.025031881 0.81855464 0.2195701
v -0.043356363 0.8142916 0.20298763
v 4.4609475E-08 0.8201149 0.22563964
v -0.025031785 0.81855464 0.2195701
v -0.043356348 0.82439893 0.1491181
v -0.05006361 0.8390605 0.16940677
v -0.043356348 0.85372204 0.18969543
v -0.025031775 0.864455 0.20454782
v 5.565426E-08 0.8683836 0.20998414
v 0.025031889 0.864455 0.20454782
v -0.025031775 0.813666 0.13426572
v 0.043356463 0.85372204 0.18969543
v 5.565426E-08 0.8097374 0.12882929
v 0.050063718 0.8390605 0.16940677
v 0.025031889 0.813666 0.13426572
v 0.043356463 0.82439893 0.1491181
v 0.025031887 0.8951531 0.17033195
v 0.043356463 0.8804631 0.16066658
v 0.050063718 0.8603965 0.14746359
v 0.043356463 0.8403295 0.13426055
v 0.025031887 0.8256397 0.12459523
v 5.4474008E-08 0.8202629 0.12105741
v 5.4474008E-08 0.9005299 0.17386968
v -0.025031777 0.8256397 0.12459523
v -0.025031777 0.8951531 0.17033195
v -0.043356348 0.8403295 0.13426055
v -0.043356348 0.8804631 0.16066658
v -0.050063614 0.8603965 0.14746359
v 5.3293757E-08 0.8285416 0.10297882
v -0.025031777 0.83499396 0.10480992
v -0.04335635 0.85262257 0.109812446
v -0.050063614 0.8767035 0.11664595
v -0.04335635 0.9007845 0.12347944
v -0.025031777 0.91841304 0.12848203
v 0.025031887 0.83499396 0.10480992
v 5.3293757E-08 0.9248654 0.13031305
v 0.04335646 0.85262257 0.109812446
v 0.025031887 0.91841304 0.12848203
v 0.050063718 0.8767035 0.11664595
v 0.04335646 0.9007845 0.12347944
v -0.025031777 0.9180838 0.080618024
v 5.3293757E-08 0.9243937 0.08041813
v 0.025031887 0.9180838 0.080618024
v 0.04335646 0.900845 0.08116405
v 0.050063718 0.8772963 0.08191005
v 0.04335646 0.8537476 0.08265605
v -0.04335635 0.900845 0.08116405
v 0.025031887 0.8365088 0.08320212
v -0.050063614 0.8772963 0.08191005
v 5.3293757E-08 0.8301989 0.08340195
v -0.04335635 0.8537476 0.08265605
v -0.025031777 0.8365088 0.08320212
v 0.04335646 0.8491557 0.05776405
v 0.025031887 0.83245224 0.06529983
v 5.3293757E-08 0.82633847 0.06805807
v -0.025031777 0.83245224 0.06529983
v -0.04335635 0.8491557 0.05776405
v -0.050063614 0.8719728 0.047469966
v 0.050063718 0.8719728 0.047469966
v -0.04335635 0.89479005 0.037175886
v 0.04335646 0.89479005 0.037175886
v -0.025031777 0.91149336 0.029640164
v 0.025031887 0.91149336 0.029640164
v 5.3293757E-08 0.9176073 0.02688186
v -0.050063614 0.851212 0.024438644
v -0.043356355 0.8682111 0.008093592
v -0.02503178 0.8806552 -0.0038717787
v 5.129709E-08 0.88521004 -0.00825143
v 0.025031887 0.8806552 -0.0038717787
v 0.043356456 0.8682111 0.008093592
v -0.043356355 0.8342131 0.040783696
v 0.050063714 0.851212 0.024438644
v -0.02503178 0.82176894 0.0527491
v 0.043356456 0.8342131 0.040783696
v 5.129709E-08 0.81721395 0.057128713
v 0.025031887 0.82176894 0.0527491
v 0.043356456 0.8363075 -0.01566404
v 0.050063714 0.8251267 0.0067319786
v 0.043356456 0.81394595 0.029127998
v 0.025031883 0.80576104 0.045523025
v 4.9300418E-08 0.80276495 0.051524013
v -0.025031785 0.80576104 0.045523025
v 0.025031883 0.84449244 -0.032059062
v -0.043356355 0.81394595 0.029127998
v 4.9300418E-08 0.8474883 -0.038060058
v -0.050063614 0.8251267 0.0067319786
v -0.025031785 0.84449244 -0.032059062
v -0.043356355 0.8363075 -0.01566404
v -0.025031833 0.7818428 0.043356407
v -0.043356407 0.7818428 0.025031833
v -0.050063666 0.7818428 0
v -0.043356407 0.7818428 -0.025031833
v -0.025031833 0.7818428 -0.043356407
v -0 0.7818428 -0.050063666
v -0 0.7818428 0.050063666
v 0.025031833 0.7818428 -0.043356407
v 0.025031833 0.7818428 0.043356407
v 0.043356407 0.7818428 -0.025031833
v 0.043356407 0.7818428 0.025031833
v 0.050063666 0.7818428 0
v -0 0 -0.050063666
v 0.025031833 0 -0.043356407
v -0.025031833 0 -0.043356407
v 0.043356407 0 -0.025031833
v -0.043356407 0 -0.025031833
v 0.050063666 0 0
v -0.050063666 0 0
v 0.043356407 0 0.025031833
v -0.043356407 0 0.025031833
v 0.025031833 0 0.043356407
v -0.025031833 0 0.043356407
v -0 0 0.050063666
vt 0 0
vt 0 0
vt 0 0
vt 0 0
vt 0 0
vt 0 0
vt 0 0
vt 0 0
vt 0 0
vt 0 0
vt 0 0
vt 0 0
vt 0 0
vt 0 0
vt 0 0
vt 0 0
vt 0 0
vt 0 0
vt 0 0
vt 0 0
vt 0 0
vt 0 0
vt 0 0
vt 0 0
vt 0 0
vt 0 0
vt 0 0
vt 0 0
vt 0 0
vt 0 0
vt 0 0
vt 0 0
vt 0 0
vt 0 0
vt 0 0
vt 0 0
vt 0 0
vt 0 0
vt 0 0
vt 0 0
vt 0 0
vt 0 0
vt 0 0
vt 0 0
vt 0 0
vt 0 0
vt 0 0
vt 0 0
vt 0 0
vt 0 0
vt 0 0
vt 0 0
vt 0 0
vt 0 0
vt 0 0
vt 0 0
vt 0 0
vt 0 0
vt 0 0
vt 0 0
vt 0 0
vt 0 0
vt 0 0
vt 0 0
vt 0 0
vt 0 0
vt 0 0
vt 0 0
vt 0 0
vt 0 0
vt 0 0
vt 0 0
vt 0 0
vt 0 0
vt 0 0
vt 0 0
vt 0 0
vt 0 0
vt 0 0
vt 0 0
vt 0 0
vt 0 0
vt 0 0
vt 0 0
vt 0 0
vt 0 0
vt 0 0
vt 0 0
vt 0 0
vt 0 0
vt 0 0
vt 0 0
vt 0 0
vt 0 0
vt 0 0
vt 0 0
vt 0 0
vt 0 0
vt 0 0
vt 0 0
vt 0 0
vt 0 0
vt 0 0
vt 0 0
vt 0 0
vt 0 0
vt 0 0
vt 0 0
vt 0 0
vt 0 0
vt 0 0
vt 0 0
vt 0 0
vt 0 0
vt 0 0
vt 0 0
vt 0 0
vt 0 0
vt 0 0
vt 0 0
vt 0 0
vt 0 0
vt 0 0
vt 0 0
vt 0 0
vt 0 0
vt 0 0
vt 0 0
vt 0 0
vt 0 0
vt 0 0
vt 0 0
vt 0 0
vt 0 0
vt 0 0
vt 0 0
vt 0 0
vt 0 0
vt 0 0
vt 0 0
vt 0 0
vt 0 0
vt 0 0
vt 0 0
vt 0 0
vt 0 0
vt 0 0
vt 0 0
vt 0 0
vt 0 0
vt 0 0
vt 0 0
vt 0 0
vt 0 0
vt 0 0
vt 0 0
vn 0.3786621 -0.65722656 -0.6513672
vn -0 -0.6582031 -0.7529297
vn -0.3786621 -0.65722656 -0.6513672
vn 0.6557617 -0.6557617 -0.37451172
vn -0.6557617 -0.6557617 -0.37451172
vn 0.7573242 -0.6533203 0.004173279
vn -0.7573242 -0.6533203 0.004173279
vn 0.6557617 -0.6508789 0.3828125
vn -0.6557617 -0.6508789 0.3828125
vn 0.3786621 -0.6489258 0.65966797
vn -0.3786621 -0.6489258 0.65966797
vn -0 -0.6484375 0.76123047
vn -0 0.124694824 0.9921875
vn -0 0.012283325 1
vn -0.49951172 0.010597229 0.86621094
vn -0.48608398 0.109069824 0.8671875
vn -0.86572266 0.0060653687 0.50097656
vn 0.48608398 0.109069824 0.8671875
vn 0.49951172 0.010597229 0.86621094
vn -0.8544922 0.06500244 0.5151367
vn -1 4.8279762E-05 0.000895977
vn 0.8544922 0.06500244 0.5151367
vn 0.86572266 0.0060653687 0.50097656
vn -1 0.006248474 0.014831543
vn -0.86621094 -0.0057640076 -0.49951172
vn 1 0.006248474 0.014831543
vn 1 4.9233437E-05 0.000895977
vn -0.8666992 -0.03869629 -0.4970703
vn -0.5 -0.009887695 -0.86572266
vn 0.8666992 -0.03869629 -0.4970703
vn 0.86621094 -0.005760193 -0.49951172
vn -0.49560547 -0.04989624 -0.8671875
vn -0 -0.011367798 -1
vn 0.49560547 -0.04989624 -0.8671875
vn 0.5 -0.009887695 -0.86572266
vn -0 -0.046691895 -0.99902344
vn 1 0.004550934 0.012771606
vn 0.86621094 -0.12878418 -0.48242188
vn 0.5 -0.21984863 -0.83740234
vn -0 -0.25195312 -0.96777344
vn -0.5 -0.21984863 -0.83740234
vn -0.86621094 -0.12878418 -0.48242188
vn 0.8520508 0.14172363 0.50439453
vn -1 0.004550934 0.012771606
vn 0.4794922 0.23876953 0.8442383
vn -0.8520508 0.14172363 0.50439453
vn -0 0.27270508 0.96191406
vn -0.4794922 0.23876953 0.8442383
vn -0.87402344 -0.25854492 -0.41137695
vn -0.9995117 0.019119263 0.032440186
vn -0.84521484 0.28979492 0.4494629
vn -0.47802734 0.4802246 0.73535156
vn -0 0.54833984 0.8364258
vn 0.47802734 0.4802246 0.73535156
vn -0.4970703 -0.453125 -0.7397461
vn 0.84521484 0.28979492 0.4494629
vn -0 -0.5180664 -0.85546875
vn 0.9995117 0.019119263 0.032440186
vn 0.4970703 -0.453125 -0.7397461
vn 0.87402344 -0.25854492 -0.41137695
vn 0.48266602 0.7133789 0.5083008
vn 0.8515625 0.42578125 0.30566406
vn 0.9995117 0.019927979 0.014320374
vn 0.8754883 -0.3864746 -0.29077148
vn 0.51171875 -0.67578125 -0.53027344
vn -0 -0.7792969 -0.62646484
vn -0 0.8149414 0.57958984
vn -0.51171875 -0.67578125 -0.53027344
vn -0.48266602 0.7133789 0.5083008
vn -0.8754883 -0.3864746 -0.29077148
vn -0.8515625 0.42578125 0.30566406
vn -0.9995117 0.019927979 0.014320374
vn -0 -0.96728516 -0.2529297
vn -0.50683594 -0.8339844 -0.21728516
vn -0.8779297 -0.46313477 -0.12011719
vn -0.99902344 0.037872314 0.008453369
vn -0.8461914 0.51660156 0.13110352
vn -0.4794922 0.85009766 0.2175293
vn 0.50683594 -0.8339844 -0.21728516
vn -0 0.96875 0.24853516
vn 0.8779297 -0.46313477 -0.12011719
vn 0.4794922 0.85009766 0.2175293
vn 0.99902344 0.037872314 0.008453369
vn 0.8461914 0.51660156 0.13110352
vn -0.4794922 0.8754883 -0.059173584
vn -0 0.9975586 -0.06738281
vn 0.4794922 0.8754883 -0.059173584
vn 0.8515625 0.5234375 -0.03567505
vn 1 0.015083313 -0.001414299
vn 0.8666992 -0.49804688 0.035308838
vn -0.8515625 0.5234375 -0.03567505
vn 0.49829102 -0.8642578 0.06616211
vn -1 0.015083313 -0.001414299
vn -0 -0.9970703 0.07952881
vn -0.8666992 -0.49804688 0.035308838
vn -0.49829102 -0.8642578 0.06616211
vn 0.8823242 -0.42285156 0.20581055
vn 0.51123047 -0.7685547 0.38452148
vn -0 -0.89208984 0.4519043
vn -0.51123047 -0.7685547 0.38452148
vn -0.8823242 -0.42285156 0.20581055
vn -0.99902344 0.043121338 -0.020645142
vn 0.99902344 0.043121338 -0.020645142
vn -0.84277344 0.48706055 -0.2286377
vn 0.84277344 0.48706055 -0.2286377
vn -0.47705078 0.7963867 -0.37109375
vn 0.47705078 0.7963867 -0.37109375
vn -0 0.9067383 -0.42163086
vn -1 0.014892578 -0.014923096
vn -0.85009766 0.35351562 -0.38989258
vn -0.4794922 0.59472656 -0.6455078
vn -0 0.6791992 -0.7338867
vn 0.4794922 0.59472656 -0.6455078
vn 0.85009766 0.35351562 -0.38989258
vn -0.87109375 -0.31030273 0.38085938
vn 1 0.014892578 -0.014923096
vn -0.5048828 -0.5205078 0.68847656
vn 0.87109375 -0.31030273 0.38085938
vn -0 -0.58740234 0.80908203
vn 0.5048828 -0.5205078 0.68847656
vn 0.84765625 0.21020508 -0.48706055
vn 0.9995117 0.014968872 -0.03277588
vn 0.87597656 -0.15112305 0.45825195
vn 0.50146484 -0.22351074 0.8359375
vn -0 -0.23156738 0.97265625
vn -0.50146484 -0.22351074 0.8359375
vn 0.48120117 0.35766602 -0.80029297
vn -0.87597656 -0.15100098 0.45825195
vn -0 0.4116211 -0.9111328
vn -0.9995117 0.014968872 -0.03277588
vn -0.48120117 0.35766602 -0.80029297
vn -0.84765625 0.21020508 -0.48706055
vn -0.49780273 -0.041168213 0.86621094
vn -0.8676758 -0.029937744 0.4958496
vn -1 0.0033798218 -0.012611389
vn -0.85791016 0.045135498 -0.51171875
vn -0.49047852 0.0769043 -0.86816406
vn -0 0.08843994 -0.99609375
vn -0 -0.040618896 0.99902344
vn 0.49047852 0.0769043 -0.86816406
vn 0.49780273 -0.041168213 0.86621094
vn 0.85791016 0.045135498 -0.51171875
vn 0.8676758 -0.029937744 0.4958496
vn 1 0.0033798218 -0.012611389
vn -0 -0.6533203 -0.7573242
vn 0.3786621 -0.6533203 -0.6557617
vn -0.3786621 -0.6533203 -0.6557617
vn 0.6557617 -0.6533203 -0.3786621
vn -0.6557617 -0.6533203 -0.3786621
vn 0.7573242 -0.6533203 0
vn -0.7573242 -0.6533203 0
vn 0.6557617 -0.6533203 0.3786621
vn -0.6557617 -0.6533203 0.3786621
vn 0.3786621 -0.6533203 0.6557617
vn -0.3786621 -0.6533203 0.6557617
vn -0 -0.6533203 0.7573242
g Circle_0
f 3/3/3 2/2/2 1/1/1
f 1/1/1 4/4/4 3/3/3
f 4/4/4 5/5/5 3/3/3
f 4/4/4 6/6/6 5/5/5
f 6/6/6 7/7/7 5/5/5
f 6/6/6 8/8/8 7/7/7
f 8/8/8 9/9/9 7/7/7
f 8/8/8 10/10/10 9/9/9
f 10/10/10 11/11/11 9/9/9
f 10/10/10 12/12/12 11/11/11
f 15/15/15 14/14/14 13/13/13
f 16/16/16 15/15/15 13/13/13
f 17/17/17 15/15/15 16/16/16
f 13/13/13 14/14/14 18/18/18
f 14/14/14 19/19/19 18/18/18
f 20/20/20 17/17/17 16/16/16
f 21/21/21 17/17/17 20/20/20
f 18/18/18 19/19/19 22/22/22
f 19/19/19 23/23/23 22/22/22
f 24/24/24 21/21/21 20/20/20
f 25/25/25 21/21/21 24/24/24
f 22/22/22 23/23/23 26/26/26
f 23/23/23 27/27/27 26/26/26
f 28/28/28 25/25/25 24/24/24
f 29/29/29 25/25/25 28/28/28
f 26/26/26 27/27/27 30/30/30
f 27/27/27 31/31/31 30/30/30
f 32/32/32 29/29/29 28/28/28
f 33/33/33 29/29/29 32/32/32
f 30/30/30 31/31/31 34/34/34
f 31/31/31 35/35/35 34/34/34
f 35/35/35 33/33/33 36/36/36
f 36/36/36 33/33/33 32/32/32
f 34/34/34 35/35/35 36/36/36
f 22/22/22 26/26/26 37/37/37
f 26/26/26 30/30/30 38/38/38
f 37/37/37 26/26/26 38/38/38
f 30/30/30 34/34/34 39/39/39
f 38/38/38 30/30/30 39/39/39
f 34/34/34 36/36/36 40/40/40
f 39/39/39 34/34/34 40/40/40
f 36/36/36 32/32/32 41/41/41
f 40/40/40 36/36/36 41/41/41
f 32/32/32 28/28/28 42/42/42
f 41/41/41 32/32/32 42/42/42
f 43/43/43 22/22/22 37/37/37
f 18/18/18 22/22/22 43/43/43
f 42/42/42 28/28/28 44/44/44
f 28/28/28 24/24/24 44/44/44
f 45/45/45 18/18/18 43/43/43
f 13/13/13 18/18/18 45/45/45
f 44/44/44 24/24/24 46/46/46
f 24/24/24 20/20/20 46/46/46
f 47/47/47 13/13/13 45/45/45
f 16/16/16 13/13/13 47/47/47
f 20/20/20 16/16/16 48/48/48
f 46/46/46 20/20/20 48/48/48
f 48/48/48 16/16/16 47/47/47
f 41/41/41 42/42/42 49/49/49
f 42/42/42 44/44/44 50/50/50
f 49/49/49 42/42/42 50/50/50
f 44/44/44 46/46/46 51/51/51
f 50/50/50 44/44/44 51/51/51
f 46/46/46 48/48/48 52/52/52
f 51/51/51 46/46/46 52/52/52
f 48/48/48 47/47/47 53/53/53
f 52/52/52 48/48/48 53/53/53
f 47/47/47 45/45/45 54/54/54
f 53/53/53 47/47/47 54/54/54
f 55/55/55 41/41/41 49/49/49
f 40/40/40 41/41/41 55/55/55
f 54/54/54 45/45/45 56/56/56
f 45/45/45 43/43/43 56/56/56
f 57/57/57 40/40/40 55/55/55
f 39/39/39 40/40/40 57/57/57
f 56/56/56 43/43/43 58/58/58
f 43/43/43 37/37/37 58/58/58
f 59/59/59 39/39/39 57/57/57
f 38/38/38 39/39/39 59/59/59
f 37/37/37 38/38/38 60/60/60
f 58/58/58 37/37/37 60/60/60
f 60/60/60 38/38/38 59/59/59
f 53/53/53 54/54/54 61/61/61
f 54/54/54 56/56/56 62/62/62
f 61/61/61 54/54/54 62/62/62
f 56/56/56 58/58/58 63/63/63
f 62/62/62 56/56/56 63/63/63
f 58/58/58 60/60/60 64/64/64
f 63/63/63 58/58/58 64/64/64
f 60/60/60 59/59/59 65/65/65
f 64/64/64 60/60/60 65/65/65
f 59/59/59 57/57/57 66/66/66
f 65/65/65 59/59/59 66/66/66
f 67/67/67 53/53/53 61/61/61
f 52/52/52 53/53/53 67/67/67
f 66/66/66 57/57/57 68/68/68
f 57/57/57 55/55/55 68/68/68
f 69/69/69 52/52/52 67/67/67
f 51/51/51 52/52/52 69/69/69
f 68/68/68 55/55/55 70/70/70
f 55/55/55 49/49/49 70/70/70
f 71/71/71 51/51/51 69/69/69
f 50/50/50 51/51/51 71/71/71
f 49/49/49 50/50/50 72/72/72
f 70/70/70 49/49/49 72/72/72
f 72/72/72 50/50/50 71/71/71
f 65/65/65 66/66/66 73/73/73
f 66/66/66 68/68/68 74/74/74
f 73/73/73 66/66/66 74/74/74
f 68/68/68 70/70/70 75/75/75
f 74/74/74 68/68/68 75/75/75
f 70/70/70 72/72/72 76/76/76
f 75/75/75 70/70/70 76/76/76
f 72/72/72 71/71/71 77/77/77
f 76/76/76 72/72/72 77/77/77
f 71/71/71 69/69/69 78/78/78
f 77/77/77 71/71/71 78/78/78
f 79/79/79 65/65/65 73/73/73
f 64/64/64 65/65/65 79/79/79
f 78/78/78 69/69/69 80/80/80
f 69/69/69 67/67/67 80/80/80
f 81/81/81 64/64/64 79/79/79
f 63/63/63 64/64/64 81/81/81
f 80/80/80 67/67/67 82/82/82
f 67/67/67 61/61/61 82/82/82
f 83/83/83 63/63/63 81/81/81
f 62/62/62 63/63/63 83/83/83
f 61/61/61 62/62/62 84/84/84
f 82/82/82 61/61/61 84/84/84
f 84/84/84 62/62/62 83/83/83
f 77/77/77 78/78/78 85/85/85
f 78/78/78 80/80/80 86/86/86
f 85/85/85 78/78/78 86/86/86
f 80/80/80 82/82/82 87/87/87
f 86/86/86 80/80/80 87/87/87
f 82/82/82 84/84/84 88/88/88
f 87/87/87 82/82/82 88/88/88
f 84/84/84 83/83/83 89/89/89
f 88/88/88 84/84/84 89/89/89
f 83/83/83 81/81/81 90/90/90
f 89/89/89 83/83/83 90/90/90
f 91/91/91 77/77/77 85/85/85
f 76/76/76 77/77/77 91/91/91
f 90/90/90 81/81/81 92/92/92
f 81/81/81 79/79/79 92/92/92
f 93/93/93 76/76/76 91/91/91
f 75/75/75 76/76/76 93/93/93
f 92/92/92 79/79/79 94/94/94
f 79/79/79 73/73/73 94/94/94
f 95/95/95 75/75/75 93/93/93
f 74/74/74 75/75/75 95/95/95
f 73/73/73 74/74/74 96/96/96
f 94/94/94 73/73/73 96/96/96
f 96/96/96 74/74/74 95/95/95
f 89/89/89 90/90/90 97/97/97
f 90/90/90 92/92/92 98/98/98
f 97/97/97 90/90/90 98/98/98
f 92/92/92 94/94/94 99/99/99
f 98/98/98 92/92/92 99/99/99
f 94/94/94 96/96/96 100/100/100
f 99/99/99 94/94/94 100/100/100
f 96/96/96 95/95/95 101/101/101
f 100/100/100 96/96/96 101/101/101
f 95/95/95 93/93/93 102/102/102
f 101/101/101 95/95/95 102/102/102
f 103/103/103 89/89/89 97/97/97
f 88/88/88 89/89/89 103/103/103
f 102/102/102 93/93/93 104/104/104
f 93/93/93 91/91/91 104/104/104
f 105/105/105 88/88/88 103/103/103
f 87/87/87 88/88/88 105/105/105
f 104/104/104 91/91/91 106/106/106
f 91/91/91 85/85/85 106/106/106
f 107/107/107 87/87/87 105/105/105
f 86/86/86 87/87/87 107/107/107
f 85/85/85 86/86/86 108/108/108
f 106/106/106 85/85/85 108/108/108
f 108/108/108 86/86/86 107/107/107
f 101/101/101 102/102/102 109/109/109
f 102/102/102 104/104/104 110/110/110
f 109/109/109 102/102/102 110/110/110
f 104/104/104 106/106/106 111/111/111
f 110/110/110 104/104/104 111/111/111
f 106/106/106 108/108/108 112/112/112
f 111/111/111 106/106/106 112/112/112
f 108/108/108 107/107/107 113/113/113
f 112/112/112 108/108/108 113/113/113
f 107/107/107 105/105/105 114/114/114
f 113/113/113 107/107/107 114/114/114
f 115/115/115 101/101/101 109/109/109
f 100/100/100 101/101/101 115/115/115
f 114/114/114 105/105/105 116/116/116
f 105/105/105 103/103/103 116/116/116
f 117/117/117 100/100/100 115/115/115
f 99/99/99 100/100/100 117/117/117
f 116/116/116 103/103/103 118/118/118
f 103/103/103 97/97/97 118/118/118
f 119/119/119 99/99/99 117/117/117
f 98/98/98 99/99/99 119/119/119
f 97/97/97 98/98/98 120/120/120
f 118/118/118 97/97/97 120/120/120
f 120/120/120 98/98/98 119/119/119
f 113/113/113 114/114/114 121/121/121
f 114/114/114 116/116/116 122/122/122
f 121/121/121 114/114/114 122/122/122
f 116/116/116 118/118/118 123/123/123
f 122/122/122 116/116/116 123/123/123
f 118/118/118 120/120/120 124/124/124
f 123/123/123 118/118/118 124/124/124
f 120/120/120 119/119/119 125/125/125
f 124/124/124 120/120/120 125/125/125
f 119/119/119 117/117/117 126/126/126
f 125/125/125 119/119/119 126/126/126
f 127/127/127 113/113/113 121/121/121
f 112/112/112 113/113/113 127/127/127
f 126/126/126 117/117/117 128/128/128
f 117/117/117 115/115/115 128/128/128
f 129/129/129 112/112/112 127/127/127
f 111/111/111 112/112/112 129/129/129
f 128/128/128 115/115/115 130/130/130
f 115/115/115 109/109/109 130/130/130
f 131/131/131 111/111/111 129/129/129
f 110/110/110 111/111/111 131/131/131
f 109/109/109 110/110/110 132/132/132
f 130/130/130 109/109/109 132/132/132
f 132/132/132 110/110/110 131/131/131
f 125/125/125 126/126/126 133/133/133
f 126/126/126 128/128/128 134/134/134
f 133/133/133 126/126/126 134/134/134
f 128/128/128 130/130/130 135/135/135
f 134/134/134 128/128/128 135/135/135
f 130/130/130 132/132/132 136/136/136
f 135/135/135 130/130/130 136/136/136
f 132/132/132 131/131/131 137/137/137
f 136/136/136 132/132/132 137/137/137
f 131/131/131 129/129/129 138/138/138
f 137/137/137 131/131/131 138/138/138
f 139/139/139 125/125/125 133/133/133
f 124/124/124 125/125/125 139/139/139
f 138/138/138 129/129/129 140/140/140
f 129/129/129 127/127/127 140/140/140
f 141/141/141 124/124/124 139/139/139
f 123/123/123 124/124/124 141/141/141
f 140/140/140 127/127/127 142/142/142
f 127/127/127 121/121/121 142/142/142
f 143/143/143 123/123/123 141/141/141
f 122/122/122 123/123/123 143/143/143
f 121/121/121 122/122/122 144/144/144
f 142/142/142 121/121/121 144/144/144
f 144/144/144 122/122/122 143/143/143
f 137/137/137 138/138/138 145/145/145
f 138/138/138 140/140/140 146/146/146
f 145/145/145 138/138/138 146/146/146
f 147/147/147 137/137/137 145/145/145
f 147/147/147 145/145/145 146/146/146
f 136/136/136 137/137/137 147/147/147
f 146/146/146 140/140/140 148/148/148
f 140/140/140 142/142/142 148/148/148
f 146/146/146 148/148/148 147/147/147
f 149/149/149 136/136/136 147/147/147
f 148/148/148 149/149/149 147/147/147
f 135/135/135 136/136/136 149/149/149
f 148/148/148 142/142/142 150/150/150
f 142/142/142 144/144/144 150/150/150
f 148/148/148 150/150/150 149/149/149
f 151/151/151 135/135/135 149/149/149
f 150/150/150 151/151/151 149/149/149
f 134/134/134 135/135/135 151/151/151
f 150/150/150 144/144/144 152/152/152
f 150/150/150 152/152/152 151/151/151
f 144/144/144 143/143/143 152/152/152
f 153/153/153 134/134/134 151/151/151
f 152/152/152 153/153/153 151/151/151
f 133/133/133 134/134/134 153/153/153
f 152/152/152 143/143/143 154/154/154
f 152/152/152 154/154/154 153/153/153
f 143/143/143 141/141/141 154/154/154
f 155/155/155 133/133/133 153/153/153
f 154/154/154 155/155/155 153/153/153
f 139/139/139 133/133/133 155/155/155
f 141/141/141 139/139/139 156/156/156
f 154/154/154 141/141/141 156/156/156
f 154/154/154 156/156/156 155/155/155
f 156/156/156 139/139/139 155/155/155
g Circle_1
f 11/11/11 12/12/12 14/14/14
f 15/15/15 11/11/11 14/14/14
f 14/14/14 12/12/12 19/19/19
f 9/9/9 11/11/11 15/15/15
f 12/12/12 10/10/10 19/19/19
f 17/17/17 9/9/9 15/15/15
f 19/19/19 10/10/10 23/23/23
f 7/7/7 9/9/9 17/17/17
f 10/10/10 8/8/8 23/23/23
f 21/21/21 7/7/7 17/17/17
f 23/23/23 8/8/8 27/27/27
f 5/5/5 7/7/7 21/21/21
f 8/8/8 6/6/6 27/27/27
f 25/25/25 5/5/5 21/21/21
f 27/27/27 6/6/6 31/31/31
f 3/3/3 5/5/5 25/25/25
f 6/6/6 4/4/4 31/31/31
f 29/29/29 3/3/3 25/25/25
f 31/31/31 4/4/4 35/35/35
f 2/2/2 3/3/3 29/29/29
f 4/4/4 1/1/1 35/35/35
f 33/33/33 2/2/2 29/29/29
f 35/35/35 1/1/1 33/33/33
f 1/1/1 2/2/2 33/33/33
