g Circle
v -0.20543988 -2.5965333 -0.4959754
v -1.9154201E-07 -2.5965333 -0.5368399
v -1.7943482E-07 -2.4634833 -0.86434364
v 0.20543952 -2.5965333 -0.4959754
v 0.33076978 -2.4634833 -0.7985493
v 0.379603 -2.5965333 -0.37960315
v 0.61118305 -2.4634833 -0.61118317
v -0.3307701 -2.4634833 -0.7985493
v -0.37960333 -2.5965333 -0.37960315
v 0.3826833 -2.1422727 -0.9238795
v 0.70710665 -2.1422727 -0.70710677
v -1.547114E-07 -2.1422727 -1
v 0.7985492 -2.4634833 -0.33077002
v 0.49597523 -2.5965333 -0.20543984
v 0.9238794 -2.1422727 -0.38268346
v -0.61118335 -2.4634833 -0.61118317
v -0.3826836 -2.1422727 -0.9238795
v -0.49597555 -2.5965333 -0.20543984
v 0.7071069 2.142272 -0.70710677
v 0.3826836 2.142272 -0.9238795
v 0.9238796 2.142272 -0.38268346
v 1.687627E-07 2.142272 -1
v 0.8643434 -2.4634833 0
v 0.9999999 -2.1422727 0
v 0.5368397 -2.5965333 0
v 1.0000002 2.142272 0
v 0.7985494 2.4634824 -0.33077
v 0.61118335 2.4634824 -0.61118317
v 0.33077008 2.4634824 -0.7985493
v 0.8643439 2.4634824 9.313226E-10
v 0.9238794 -2.1422727 0.38268346
v 0.9238796 2.142272 0.38268346
v 0.7985492 -2.4634833 0.33077002
v 0.7985494 2.4634824 0.33077
v 0.49597555 2.5965323 -0.20543984
v 0.53684014 2.5965323 0
v 0.37960333 2.5965323 -0.37960315
v 0.49597555 2.5965323 0.20543984
v 0.7071069 2.142272 0.70710677
v 0.61118335 2.4634824 0.61118317
v 0.70710665 -2.1422727 0.70710677
v 0.37960336 2.5965323 0.37960315
v -0.5368397 2.5965323 0
v -0.49597523 2.5965323 0.20543984
v -0.49597523 2.5965323 -0.20543984
v -0.37960297 2.5965323 0.37960315
v 0.33077008 2.4634824 0.7985493
v 0.20543975 2.5965323 0.4959755
v -0.20543948 2.5965323 0.49597543
v 0.3826836 2.142272 0.9238795
v 3.374492E-07 2.5965323 0.53683996
v 2.3220976E-07 2.4634824 0.86434364
v -0.33076978 2.4634824 0.79854923
v -0.61118305 2.4634824 0.61118317
v 1.687627E-07 2.142272 1
v 0.3826833 -2.1422727 0.9238795
v -0.3826833 2.142272 0.9238795
v -0.7985492 2.4634824 0.33077002
v 0.61118305 -2.4634833 0.61118317
v -1.547114E-07 -2.1422727 1
v -0.70710665 2.142272 0.70710677
v -0.8643434 2.4634824 0
v 0.49597523 -2.5965333 0.20543984
v 0.33076978 -2.4634833 0.7985493
v -0.3826836 -2.1422727 0.9238795
v -0.9238794 2.142272 0.38268346
v -0.53684014 -2.5965333 0
v 0.37960297 -2.5965333 0.37960315
v -1.7943482E-07 -2.4634833 0.86434364
v -0.7071069 -2.1422727 0.70710677
v -0.7985494 -2.4634833 -0.33077
v -0.49597555 -2.5965333 0.20543984
v 0.20543952 -2.5965333 0.4959754
v -0.33077013 -2.4634833 0.79854923
v -0.7071069 -2.1422727 -0.70710677
v -0.8643439 -2.4634833 0
v -0.37960336 -2.5965333 0.37960315
v -1.9154201E-07 -2.5965333 0.5368399
v -0.20543988 -2.5965333 0.4959754
v -0.61118335 -2.4634833 0.61118317
v -0.7985494 -2.4634833 0.33077
v -0.9238796 -2.1422727 0.38268346
v -0.9238796 -2.1422727 -0.38268346
v -1.0000002 -2.1422727 0
v -0.9999999 2.142272 0
v -0.9238794 2.142272 -0.38268346
v -0.7985492 2.4634824 -0.33077002
v -0.70710665 2.142272 -0.70710677
v -0.61118305 2.4634824 -0.61118317
v -0.379603 2.5965323 -0.37960315
v -0.3826833 2.142272 -0.9238795
v -0.33076978 2.4634824 -0.7985493
v -0.20543948 2.5965323 -0.49597546
v 2.3220976E-07 2.4634824 -0.86434364
v 0.20543975 2.5965323 -0.4959755
v 3.374492E-07 2.5965323 -0.53683996
vt 0 0
vt 0 0
vt 0 0
vt 0 0
vt 0 0
vt 0 0
vt 0 0
vt 0 0
vt 0 0
vt 0 0
vt 0 0
vt 0 0
vt 0 0
vt 0 0
vt 0 0
vt 0 0
vt 0 0
vt 0 0
vt 0 0
vt 0 0
vt 0 0
vt 0 0
vt 0 0
vt 0 0
vt 0 0
vt 0 0
vt 0 0
vt 0 0
vt 0 0
vt 0 0
vt 0 0
vt 0 0
vt 0 0
vt 0 0
vt 0 0
vt 0 0
vt 0 0
vt 0 0
vt 0 0
vt 0 0
vt 0 0
vt 0 0
vt 0 0
vt 0 0
vt 0 0
vt 0 0
vt 0 0
vt 0 0
vt 0 0
vt 0 0
vt 0 0
vt 0 0
vt 0 0
vt 0 0
vt 0 0
vt 0 0
vt 0 0
vt 0 0
vt 0 0
vt 0 0
vt 0 0
vt 0 0
vt 0 0
vt 0 0
vt 0 0
vt 0 0
vt 0 0
vt 0 0
vt 0 0
vt 0 0
vt 0 0
vt 0 0
vt 0 0
vt 0 0
vt 0 0
vt 0 0
vt 0 0
vt 0 0
vt 0 0
vt 0 0
vt 0 0
vt 0 0
vt 0 0
vt 0 0
vt 0 0
vt 0 0
vt 0 0
vt 0 0
vt 0 0
vt 0 0
vt 0 0
vt 0 0
vt 0 0
vt 0 0
vt 0 0
vt 0 0
vn -0.08215332 -0.9765625 -0.19824219
vn -0 -0.9765625 -0.21459961
vn -0 -0.68896484 -0.72509766
vn 0.08215332 -0.9765625 -0.19824219
vn 0.27734375 -0.68896484 -0.6699219
vn 0.1517334 -0.9765625 -0.1517334
vn 0.5126953 -0.68896484 -0.5126953
vn -0.27734375 -0.68896484 -0.6699219
vn -0.1517334 -0.9765625 -0.1517334
vn 0.37548828 -0.19384766 -0.90625
vn 0.69384766 -0.19384766 -0.69384766
vn -0 -0.19384766 -0.98095703
vn 0.6699219 -0.68896484 -0.27734375
vn 0.19824219 -0.9765625 -0.08215332
vn 0.90625 -0.19384766 -0.37548828
vn -0.5126953 -0.68896484 -0.5126953
vn -0.37548828 -0.19384766 -0.90625
vn -0.19824219 -0.9765625 -0.08215332
vn 0.69384766 0.19384766 -0.69384766
vn 0.37548828 0.19384766 -0.90625
vn 0.90625 0.19384766 -0.37548828
vn -0 0.19384766 -0.98095703
vn 0.72509766 -0.68896484 0
vn 0.98095703 -0.19384766 0
vn 0.21459961 -0.9765625 0
vn 0.98095703 0.19384766 0
vn 0.6699219 0.68896484 -0.27734375
vn 0.5126953 0.68896484 -0.5126953
vn 0.27734375 0.68896484 -0.6699219
vn 0.72509766 0.68896484 0
vn 0.90625 -0.19384766 0.37548828
vn 0.90625 0.19384766 0.37548828
vn 0.6699219 -0.68896484 0.27734375
vn 0.6699219 0.68896484 0.27734375
vn 0.19824219 0.9765625 -0.08215332
vn 0.21459961 0.9765625 0
vn 0.1517334 0.9765625 -0.1517334
vn 0.19824219 0.9765625 0.08215332
vn 0.69384766 0.19384766 0.69384766
vn 0.5126953 0.68896484 0.5126953
vn 0.69384766 -0.19384766 0.69384766
vn 0.1517334 0.9765625 0.1517334
vn -0.21459961 0.9765625 0
vn -0.19824219 0.9765625 0.08215332
vn -0.19824219 0.9765625 -0.08215332
vn -0.1517334 0.9765625 0.1517334
vn 0.27734375 0.68896484 0.6699219
vn 0.08215332 0.9765625 0.19824219
vn -0.08215332 0.9765625 0.19824219
vn 0.37548828 0.19384766 0.90625
vn -0 0.9765625 0.21459961
vn -0 0.68896484 0.72509766
vn -0.27734375 0.68896484 0.6699219
vn -0.5126953 0.68896484 0.5126953
vn -0 0.19384766 0.98095703
vn 0.37548828 -0.19384766 0.90625
vn -0.37548828 0.19384766 0.90625
vn -0.6699219 0.68896484 0.27734375
vn 0.5126953 -0.68896484 0.5126953
vn -0 -0.19384766 0.98095703
vn -0.69384766 0.19384766 0.69384766
vn -0.72509766 0.68896484 0
vn 0.19824219 -0.9765625 0.08215332
vn 0.27734375 -0.68896484 0.6699219
vn -0.37548828 -0.19384766 0.90625
vn -0.90625 0.19384766 0.37548828
vn -0.21459961 -0.9765625 0
vn 0.1517334 -0.9765625 0.1517334
vn -0 -0.68896484 0.72509766
vn -0.69384766 -0.19384766 0.69384766
vn -0.6699219 -0.68896484 -0.27734375
vn -0.19824219 -0.9765625 0.08215332
vn 0.08215332 -0.9765625 0.19824219
vn -0.27734375 -0.68896484 0.6699219
vn -0.69384766 -0.19384766 -0.69384766
vn -0.72509766 -0.68896484 0
vn -0.1517334 -0.9765625 0.1517334
vn -0 -0.9765625 0.21459961
vn -0.08215332 -0.9765625 0.19824219
vn -0.5126953 -0.68896484 0.5126953
vn -0.6699219 -0.68896484 0.27734375
vn -0.90625 -0.19384766 0.37548828
vn -0.90625 -0.19384766 -0.37548828
vn -0.98095703 -0.19384766 0
vn -0.98095703 0.19384766 0
vn -0.90625 0.19384766 -0.37548828
vn -0.6699219 0.68896484 -0.27734375
vn -0.69384766 0.19384766 -0.69384766
vn -0.5126953 0.68896484 -0.5126953
vn -0.1517334 0.9765625 -0.1517334
vn -0.37548828 0.19384766 -0.90625
vn -0.27734375 0.68896484 -0.6699219
vn -0.08215332 0.9765625 -0.19824219
vn -0 0.68896484 -0.72509766
vn 0.08215332 0.9765625 -0.19824219
vn -0 0.9765625 -0.21459961
g Circle_0
f 3/3/3 2/2/2 1/1/1
f 1/1/1 2/2/2 4/4/4
f 3/3/3 5/5/5 2/2/2
f 5/5/5 4/4/4 2/2/2
f 4/4/4 6/6/6 1/1/1
f 5/5/5 7/7/7 4/4/4
f 7/7/7 6/6/6 4/4/4
f 8/8/8 3/3/3 1/1/1
f 6/6/6 9/9/9 1/1/1
f 8/8/8 1/1/1 9/9/9
f 10/10/10 5/5/5 3/3/3
f 11/11/11 7/7/7 5/5/5
f 10/10/10 11/11/11 5/5/5
f 12/12/12 3/3/3 8/8/8
f 12/12/12 10/10/10 3/3/3
f 7/7/7 13/13/13 6/6/6
f 6/6/6 14/14/14 9/9/9
f 13/13/13 14/14/14 6/6/6
f 11/11/11 15/15/15 7/7/7
f 15/15/15 13/13/13 7/7/7
f 16/16/16 8/8/8 9/9/9
f 17/17/17 12/12/12 8/8/8
f 17/17/17 8/8/8 16/16/16
f 14/14/14 18/18/18 9/9/9
f 16/16/16 9/9/9 18/18/18
f 19/19/19 11/11/11 10/10/10
f 20/20/20 10/10/10 12/12/12
f 20/20/20 19/19/19 10/10/10
f 21/21/21 15/15/15 11/11/11
f 19/19/19 21/21/21 11/11/11
f 22/22/22 12/12/12 17/17/17
f 22/22/22 20/20/20 12/12/12
f 13/13/13 23/23/23 14/14/14
f 15/15/15 24/24/24 13/13/13
f 24/24/24 23/23/23 13/13/13
f 14/14/14 25/25/25 18/18/18
f 23/23/23 25/25/25 14/14/14
f 21/21/21 26/26/26 15/15/15
f 26/26/26 24/24/24 15/15/15
f 27/27/27 21/21/21 19/19/19
f 28/28/28 19/19/19 20/20/20
f 28/28/28 27/27/27 19/19/19
f 29/29/29 20/20/20 22/22/22
f 29/29/29 28/28/28 20/20/20
f 30/30/30 26/26/26 21/21/21
f 27/27/27 30/30/30 21/21/21
f 24/24/24 31/31/31 23/23/23
f 26/26/26 32/32/32 24/24/24
f 32/32/32 31/31/31 24/24/24
f 23/23/23 33/33/33 25/25/25
f 31/31/31 33/33/33 23/23/23
f 30/30/30 34/34/34 26/26/26
f 34/34/34 32/32/32 26/26/26
f 35/35/35 27/27/27 28/28/28
f 36/36/36 30/30/30 27/27/27
f 35/35/35 36/36/36 27/27/27
f 37/37/37 28/28/28 29/29/29
f 37/37/37 35/35/35 28/28/28
f 38/38/38 34/34/34 30/30/30
f 36/36/36 38/38/38 30/30/30
f 32/32/32 39/39/39 31/31/31
f 34/34/34 40/40/40 32/32/32
f 40/40/40 39/39/39 32/32/32
f 31/31/31 41/41/41 33/33/33
f 39/39/39 41/41/41 31/31/31
f 38/38/38 42/42/42 34/34/34
f 42/42/42 40/40/40 34/34/34
f 43/43/43 36/36/36 35/35/35
f 44/44/44 38/38/38 36/36/36
f 43/43/43 44/44/44 36/36/36
f 45/45/45 35/35/35 37/37/37
f 45/45/45 43/43/43 35/35/35
f 46/46/46 42/42/42 38/38/38
f 44/44/44 46/46/46 38/38/38
f 40/40/40 47/47/47 39/39/39
f 42/42/42 48/48/48 40/40/40
f 48/48/48 47/47/47 40/40/40
f 49/49/49 48/48/48 42/42/42
f 46/46/46 49/49/49 42/42/42
f 39/39/39 50/50/50 41/41/41
f 47/47/47 50/50/50 39/39/39
f 48/48/48 51/51/51 47/47/47
f 49/49/49 51/51/51 48/48/48
f 51/51/51 52/52/52 47/47/47
f 51/51/51 49/49/49 52/52/52
f 47/47/47 52/52/52 50/50/50
f 49/49/49 46/46/46 53/53/53
f 49/49/49 53/53/53 52/52/52
f 46/46/46 44/44/44 54/54/54
f 46/46/46 54/54/54 53/53/53
f 52/52/52 55/55/55 50/50/50
f 52/52/52 53/53/53 55/55/55
f 50/50/50 56/56/56 41/41/41
f 50/50/50 55/55/55 56/56/56
f 53/53/53 57/57/57 55/55/55
f 53/53/53 54/54/54 57/57/57
f 44/44/44 58/58/58 54/54/54
f 44/44/44 43/43/43 58/58/58
f 41/41/41 56/56/56 59/59/59
f 41/41/41 59/59/59 33/33/33
f 55/55/55 60/60/60 56/56/56
f 55/55/55 57/57/57 60/60/60
f 54/54/54 61/61/61 57/57/57
f 54/54/54 58/58/58 61/61/61
f 43/43/43 62/62/62 58/58/58
f 43/43/43 45/45/45 62/62/62
f 33/33/33 59/59/59 63/63/63
f 33/33/33 63/63/63 25/25/25
f 56/56/56 64/64/64 59/59/59
f 56/56/56 60/60/60 64/64/64
f 57/57/57 65/65/65 60/60/60
f 57/57/57 61/61/61 65/65/65
f 58/58/58 66/66/66 61/61/61
f 58/58/58 62/62/62 66/66/66
f 25/25/25 63/63/63 67/67/67
f 25/25/25 67/67/67 18/18/18
f 59/59/59 68/68/68 63/63/63
f 59/59/59 64/64/64 68/68/68
f 60/60/60 69/69/69 64/64/64
f 60/60/60 65/65/65 69/69/69
f 61/61/61 70/70/70 65/65/65
f 61/61/61 66/66/66 70/70/70
f 71/71/71 18/18/18 67/67/67
f 71/71/71 16/16/16 18/18/18
f 63/63/63 72/72/72 67/67/67
f 63/63/63 68/68/68 72/72/72
f 64/64/64 73/73/73 68/68/68
f 64/64/64 69/69/69 73/73/73
f 65/65/65 74/74/74 69/69/69
f 65/65/65 70/70/70 74/74/74
f 75/75/75 16/16/16 71/71/71
f 75/75/75 17/17/17 16/16/16
f 76/76/76 71/71/71 67/67/67
f 76/76/76 67/67/67 72/72/72
f 68/68/68 77/77/77 72/72/72
f 68/68/68 73/73/73 77/77/77
f 69/69/69 78/78/78 73/73/73
f 69/69/69 74/74/74 78/78/78
f 73/73/73 78/78/78 79/79/79
f 74/74/74 79/79/79 78/78/78
f 73/73/73 79/79/79 77/77/77
f 74/74/74 80/80/80 79/79/79
f 80/80/80 77/77/77 79/79/79
f 70/70/70 80/80/80 74/74/74
f 81/81/81 72/72/72 77/77/77
f 80/80/80 81/81/81 77/77/77
f 81/81/81 76/76/76 72/72/72
f 70/70/70 82/82/82 80/80/80
f 82/82/82 81/81/81 80/80/80
f 66/66/66 82/82/82 70/70/70
f 83/83/83 71/71/71 76/76/76
f 83/83/83 75/75/75 71/71/71
f 84/84/84 76/76/76 81/81/81
f 82/82/82 84/84/84 81/81/81
f 84/84/84 83/83/83 76/76/76
f 66/66/66 85/85/85 82/82/82
f 85/85/85 84/84/84 82/82/82
f 62/62/62 85/85/85 66/66/66
f 86/86/86 83/83/83 84/84/84
f 85/85/85 86/86/86 84/84/84
f 62/62/62 87/87/87 85/85/85
f 87/87/87 86/86/86 85/85/85
f 45/45/45 87/87/87 62/62/62
f 88/88/88 75/75/75 83/83/83
f 86/86/86 88/88/88 83/83/83
f 87/87/87 89/89/89 86/86/86
f 89/89/89 88/88/88 86/86/86
f 45/45/45 90/90/90 87/87/87
f 90/90/90 89/89/89 87/87/87
f 90/90/90 45/45/45 37/37/37
f 88/88/88 91/91/91 75/75/75
f 91/91/91 17/17/17 75/75/75
f 91/91/91 22/22/22 17/17/17
f 89/89/89 92/92/92 88/88/88
f 92/92/92 91/91/91 88/88/88
f 90/90/90 93/93/93 89/89/89
f 93/93/93 90/90/90 37/37/37
f 93/93/93 92/92/92 89/89/89
f 94/94/94 22/22/22 91/91/91
f 92/92/92 94/94/94 91/91/91
f 94/94/94 29/29/29 22/22/22
f 95/95/95 37/37/37 29/29/29
f 93/93/93 37/37/37 95/95/95
f 95/95/95 29/29/29 94/94/94
f 96/96/96 94/94/94 92/92/92
f 93/93/93 96/96/96 92/92/92
f 95/95/95 96/96/96 93/93/93
f 96/96/96 95/95/95 94/94/94
