g ConfettiCurved
v -0.11346275 -0.125 -0.044980258
v -0.11346275 0.125 -0.044980258
v -0.07246208 0.125 -0.016695792
v -0.07246208 -0.125 -0.016695792
v -0.024905154 0.125 -0.0018834568
v -0.024905154 -0.125 -0.0018834568
v 0.024905154 0.125 -0.0018834568
v 0.024905154 -0.125 -0.0018834568
v 0.07246208 0.125 -0.016695792
v 0.07246208 -0.125 -0.016695792
v 0.11346276 0.125 -0.044980258
v 0.11346276 -0.125 -0.044980258
v -0.072462045 0.125 -0.016695881
v -0.113462694 0.125 -0.04498034
v -0.113462694 -0.125 -0.04498034
v -0.072462045 -0.125 -0.016695881
v -0.02490514 0.125 -0.0018835556
v -0.02490514 -0.125 -0.0018835556
v 0.02490514 0.125 -0.0018835556
v 0.02490514 -0.125 -0.0018835556
v 0.072462045 0.125 -0.016695881
v 0.072462045 -0.125 -0.016695881
v 0.1134627 0.125 -0.04498034
v 0.1134627 -0.125 -0.04498034
vt 0 0
vt 0 1
vt 0.2 1
vt 0.2 0
vt 0.4 1
vt 0.4 0
vt 0.6 1
vt 0.6 0
vt 0.8 1
vt 0.8 0
vt 1 1
vt 1 0
vt 0.2 1
vt 0 1
vt 0 0
vt 0.2 0
vt 0.4 1
vt 0.4 0
vt 0.6 1
vt 0.6 0
vt 0.8 1
vt 0.8 0
vt 1 1
vt 1 0
vn -0.56784374 0 0.8231363
vn -0.56784374 0 0.8231363
vn -0.43758658 0 0.8991763
vn -0.43758658 0 0.8991763
vn -0.15039815 0 0.9886255
vn -0.15039815 0 0.9886255
vn 0.15039815 0 0.9886255
vn 0.15039815 0 0.9886255
vn 0.43758658 0 0.8991763
vn 0.43758658 0 0.8991763
vn 0.5678437 0 0.82313645
vn 0.5678437 0 0.82313645
vn 0.4375867 0 -0.8991763
vn 0.5678438 0 -0.8231363
vn 0.5678438 0 -0.8231363
vn 0.4375867 0 -0.8991763
vn 0.15039812 0 -0.9886255
vn 0.15039812 0 -0.9886255
vn -0.15039815 0 -0.9886255
vn -0.15039815 0 -0.9886255
vn -0.43758658 0 -0.8991763
vn -0.43758658 0 -0.8991763
vn -0.56784374 0 -0.8231363
vn -0.56784374 0 -0.8231363
g ConfettiCurved_0
f 3/3/3 2/2/2 1/1/1
f 4/4/4 3/3/3 1/1/1
f 5/5/5 3/3/3 4/4/4
f 6/6/6 5/5/5 4/4/4
f 7/7/7 5/5/5 6/6/6
f 8/8/8 7/7/7 6/6/6
f 9/9/9 7/7/7 8/8/8
f 10/10/10 9/9/9 8/8/8
f 11/11/11 9/9/9 10/10/10
f 12/12/12 11/11/11 10/10/10
f 15/15/15 14/14/14 13/13/13
f 16/16/16 15/15/15 13/13/13
f 16/16/16 13/13/13 17/17/17
f 18/18/18 16/16/16 17/17/17
f 18/18/18 17/17/17 19/19/19
f 20/20/20 18/18/18 19/19/19
f 20/20/20 19/19/19 21/21/21
f 22/22/22 20/20/20 21/21/21
f 22/22/22 21/21/21 23/23/23
f 24/24/24 22/22/22 23/23/23
