g Cube.017
v -1 -0.13969898 4.6064606
v -1 -0.13969898 -4.6064606
v -1 0.13969898 -4.6064606
v -1 0.13969898 4.6064606
v 5.3043895 -0.13969898 -4.6064606
v 5.3043895 0.13969898 4.6064606
v 5.3043895 0.13969898 -4.6064606
v 5.3043895 -0.13969898 4.6064606
v 5.3043895 0.13969898 6.9473834
v 5.3043895 -0.13969898 6.9473834
v 5.3043895 0.13969898 12.755237
v 5.3043895 -0.13969898 12.755237
v -1 0.13969898 4.6064606
v 0.044818163 0.13969898 6.9473834
v 0.044818163 -0.13969898 6.9473834
v -1 -0.13969898 4.6064606
v -0.10066271 0.13969898 -6.2861056
v -0.10066271 0.13969898 -14.528589
v 5.3043895 0.13969898 -14.528589
v 5.3043895 0.13969898 -6.2861056
v -1 0.13969898 -4.6064606
v 5.3043895 0.13969898 -4.6064606
v -1 0.13969898 4.6064606
v 5.3043895 0.13969898 4.6064606
v 0.044818163 0.13969898 6.9473834
v 5.3043895 0.13969898 6.9473834
v 0.044818163 0.13969898 12.755237
v 5.3043895 0.13969898 12.755237
v -1 -0.13969898 -4.6064606
v -0.10066271 -0.13969898 -6.2861056
v -0.10066271 0.13969898 -6.2861056
v -1 0.13969898 -4.6064606
v 5.3043895 0.13969898 -4.6064606
v 5.3043895 -0.13969898 -6.2861056
v 5.3043895 -0.13969898 -4.6064606
v 5.3043895 0.13969898 -6.2861056
v 5.3043895 -0.13969898 -14.528589
v 5.3043895 0.13969898 -14.528589
v -0.10066271 -0.13969898 -14.528589
v 5.3043895 -0.13969898 -14.528589
v 5.3043895 0.13969898 -14.528589
v -0.10066271 0.13969898 -14.528589
v -0.10066271 -0.13969898 -6.2861056
v -0.10066271 -0.13969898 -14.528589
v -0.10066271 0.13969898 -14.528589
v -0.10066271 0.13969898 -6.2861056
v 5.3043895 -0.13969898 -6.2861056
v 5.3043895 -0.13969898 -14.528589
v -0.10066271 -0.13969898 -14.528589
v -0.10066271 -0.13969898 -6.2861056
v 5.3043895 -0.13969898 -4.6064606
v -1 -0.13969898 -4.6064606
v 5.3043895 -0.13969898 4.6064606
v -1 -0.13969898 4.6064606
v 5.3043895 -0.13969898 6.9473834
v 0.044818163 -0.13969898 6.9473834
v 5.3043895 -0.13969898 12.755237
v 0.044818163 -0.13969898 12.755237
v 5.3043895 -0.13969898 12.755237
v 0.044818163 -0.13969898 12.755237
v 0.044818163 0.13969898 12.755237
v 5.3043895 0.13969898 12.755237
v 0.044818163 0.13969898 6.9473834
v 0.044818163 0.13969898 12.755237
v 0.044818163 -0.13969898 12.755237
v 0.044818163 -0.13969898 6.9473834
vt 0.375 0
vt 0.375 0.25
vt 0.625 0.25
vt 0.625 0
vt 0.375 0.5
vt 0.625 0.75
vt 0.625 0.5
vt 0.375 0.75
vt 0.625 0.75
vt 0.375 0.75
vt 0.625 0.75
vt 0.375 0.75
vt 0.625 0
vt 0.625 0
vt 0.375 0
vt 0.375 0
vt 0.875 0.5
vt 0.875 0.5
vt 0.625 0.5
vt 0.625 0.5
vt 0.875 0.5
vt 0.625 0.5
vt 0.875 0.75
vt 0.625 0.75
vt 0.875 0.75
vt 0.625 0.75
vt 0.875 0.75
vt 0.625 0.75
vt 0.375 0.25
vt 0.375 0.25
vt 0.625 0.25
vt 0.625 0.25
vt 0.625 0.5
vt 0.375 0.5
vt 0.375 0.5
vt 0.625 0.5
vt 0.375 0.5
vt 0.625 0.5
vt 0.375 0.25
vt 0.375 0.5
vt 0.625 0.5
vt 0.625 0.25
vt 0.375 0.25
vt 0.375 0.25
vt 0.625 0.25
vt 0.625 0.25
vt 0.375 0.5
vt 0.375 0.5
vt 0.125 0.5
vt 0.125 0.5
vt 0.375 0.5
vt 0.125 0.5
vt 0.375 0.75
vt 0.125 0.75
vt 0.375 0.75
vt 0.125 0.75
vt 0.375 0.75
vt 0.125 0.75
vt 0.375 0.75
vt 0.375 1
vt 0.625 1
vt 0.625 0.75
vt 0.625 0
vt 0.625 0
vt 0.375 0
vt 0.375 0
vn -1 0 0
vn -1 0 0
vn -1 0 0
vn -1 0 0
vn 1 0 0
vn 1 0 0
vn 1 0 0
vn 1 0 0
vn 1 0 0
vn 1 0 0
vn 1 0 0
vn 1 0 0
vn -0.91308594 0 0.4074707
vn -0.91308594 0 0.4074707
vn -0.91308594 0 0.4074707
vn -0.91308594 0 0.4074707
vn -0 1 0
vn -0 1 0
vn -0 1 0
vn -0 1 0
vn -0 1 0
vn -0 1 0
vn -0 1 0
vn -0 1 0
vn -0 1 0
vn -0 1 0
vn -0 1 0
vn -0 1 0
vn -0.88134766 0 -0.47192383
vn -0.88134766 0 -0.47192383
vn -0.88134766 0 -0.47192383
vn -0.88134766 0 -0.47192383
vn 1 0 0
vn 1 0 0
vn 1 0 0
vn 1 0 0
vn 1 0 0
vn 1 0 0
vn -0 0 -1
vn -0 0 -1
vn -0 0 -1
vn -0 0 -1
vn -1 0 0
vn -1 0 0
vn -1 0 0
vn -1 0 0
vn -0 -1 0
vn -0 -1 0
vn -0 -1 0
vn -0 -1 0
vn -0 -1 0
vn -0 -1 0
vn -0 -1 0
vn -0 -1 0
vn -0 -1 0
vn -0 -1 0
vn -0 -1 0
vn -0 -1 0
vn -0 0 1
vn -0 0 1
vn -0 0 1
vn -0 0 1
vn -1 0 0
vn -1 0 0
vn -1 0 0
vn -1 0 0
g Cube.017_0
f 3/3/3 2/2/2 1/1/1
f 4/4/4 3/3/3 1/1/1
f 7/7/7 6/6/6 5/5/5
f 6/6/6 8/8/8 5/5/5
f 6/6/6 9/9/9 8/8/8
f 9/9/9 10/10/10 8/8/8
f 9/9/9 11/11/11 10/10/10
f 11/11/11 12/12/12 10/10/10
f 15/15/15 14/14/14 13/13/13
f 16/16/16 15/15/15 13/13/13
f 19/19/19 18/18/18 17/17/17
f 20/20/20 19/19/19 17/17/17
f 20/20/20 17/17/17 21/21/21
f 22/22/22 20/20/20 21/21/21
f 21/21/21 23/23/23 22/22/22
f 23/23/23 24/24/24 22/22/22
f 23/23/23 25/25/25 24/24/24
f 25/25/25 26/26/26 24/24/24
f 25/25/25 27/27/27 26/26/26
f 27/27/27 28/28/28 26/26/26
f 31/31/31 30/30/30 29/29/29
f 32/32/32 31/31/31 29/29/29
f 35/35/35 34/34/34 33/33/33
f 34/34/34 36/36/36 33/33/33
f 34/34/34 37/37/37 36/36/36
f 37/37/37 38/38/38 36/36/36
f 41/41/41 40/40/40 39/39/39
f 42/42/42 41/41/41 39/39/39
f 45/45/45 44/44/44 43/43/43
f 46/46/46 45/45/45 43/43/43
f 49/49/49 48/48/48 47/47/47
f 50/50/50 49/49/49 47/47/47
f 50/50/50 47/47/47 51/51/51
f 52/52/52 50/50/50 51/51/51
f 51/51/51 53/53/53 52/52/52
f 53/53/53 54/54/54 52/52/52
f 53/53/53 55/55/55 54/54/54
f 55/55/55 56/56/56 54/54/54
f 55/55/55 57/57/57 56/56/56
f 57/57/57 58/58/58 56/56/56
f 61/61/61 60/60/60 59/59/59
f 62/62/62 61/61/61 59/59/59
f 65/65/65 64/64/64 63/63/63
f 66/66/66 65/65/65 63/63/63
