g partyseat2x.2
v -0.8682338 0.019962518 -0.12211156
v 0.86620796 0.019962518 -0.12211043
v 0.86620843 0.01996264 -0.8823993
v -0.8682333 0.01996264 -0.88240045
v -0.8682338 0.3915463 -0.1221115
v -0.8682333 0.39154643 -0.8824004
v 0.86620843 0.39154643 -0.88239926
v 0.86620796 0.3915463 -0.12211037
v 0.86620796 0.019962518 -0.12211043
v 0.86620796 0.3915463 -0.12211037
v 0.86620843 0.39154643 -0.88239926
v 0.86620843 0.01996264 -0.8823993
v -0.8682333 0.01996264 -0.88240045
v -0.8682333 0.39154643 -0.8824004
v -0.8682338 0.3915463 -0.1221115
v -0.8682338 0.019962518 -0.12211156
v 0.86620843 0.01996264 -0.8823993
v 0.86620843 0.39154643 -0.88239926
v -0.8682333 0.39154643 -0.8824004
v -0.8682333 0.01996264 -0.88240045
v -0.8682338 0.019962518 -0.12211156
v -0.8682338 0.3915463 -0.1221115
v 0.86620796 0.3915463 -0.12211037
v 0.86620796 0.019962518 -0.12211043
vt 0 0
vt 1 0
vt 1 1
vt 0 1
vt 0 0
vt 0 1
vt 1 1
vt 1 0
vt 1 0
vt 1 0
vt 1 1
vt 1 1
vt 0 1
vt 0 1
vt 0 0
vt 0 0
vt 1 1
vt 1 1
vt 0 1
vt 0 1
vt 0 0
vt 0 0
vt 1 0
vt 1 0
vn -0 -1 0
vn -0 -1 0
vn -0 -1 0
vn -0 -1 0
vn -0 1 0
vn -0 1 0
vn -0 1 0
vn -0 1 0
vn 1 0 0
vn 1 0 0
vn 1 0 0
vn 1 0 0
vn -1 0 0
vn -1 0 0
vn -1 0 0
vn -1 0 0
vn -0 0 -1
vn -0 0 -1
vn -0 0 -1
vn -0 0 -1
vn -0 0 1
vn -0 0 1
vn -0 0 1
vn -0 0 1
g partyseat2x.2_0
f 3/3/3 2/2/2 1/1/1
f 4/4/4 3/3/3 1/1/1
f 7/7/7 6/6/6 5/5/5
f 8/8/8 7/7/7 5/5/5
f 11/11/11 10/10/10 9/9/9
f 12/12/12 11/11/11 9/9/9
f 15/15/15 14/14/14 13/13/13
f 16/16/16 15/15/15 13/13/13
f 19/19/19 18/18/18 17/17/17
f 20/20/20 19/19/19 17/17/17
f 23/23/23 22/22/22 21/21/21
f 24/24/24 23/23/23 21/21/21
