g Plane.051
v -0.38014436 -3.2384158E-08 0.3913915
v 0.38014454 -3.2384172E-08 0.3913913
v 0.38014436 3.4082397E-08 -0.3688976
v -0.38014454 3.408241E-08 -0.3688974
v -0.38014436 0.37158376 0.39139152
v -0.38014454 0.37158382 -0.36889738
v 0.38014436 0.37158382 -0.36889756
v 0.38014454 0.37158376 0.39139134
v 0.38014454 -3.2384172E-08 0.3913913
v 0.38014454 0.37158376 0.39139134
v 0.38014436 0.37158382 -0.36889756
v 0.38014436 3.4082397E-08 -0.3688976
v -0.38014454 3.408241E-08 -0.3688974
v -0.38014454 0.37158382 -0.36889738
v -0.38014436 0.37158376 0.39139152
v -0.38014436 -3.2384158E-08 0.3913915
v 0.38014436 3.4082397E-08 -0.3688976
v 0.38014436 0.37158382 -0.36889756
v -0.38014454 0.37158382 -0.36889738
v -0.38014454 3.408241E-08 -0.3688974
v -0.38014436 -3.2384158E-08 0.3913915
v -0.38014436 0.37158376 0.39139152
v 0.38014454 0.37158376 0.39139134
v 0.38014454 -3.2384172E-08 0.3913913
vt 0 0
vt 1 0
vt 1 1
vt 0 1
vt 0 0
vt 0 1
vt 1 1
vt 1 0
vt 1 0
vt 1 0
vt 1 1
vt 1 1
vt 0 1
vt 0 1
vt 0 0
vt 0 0
vt 1 1
vt 1 1
vt 0 1
vt 0 1
vt 0 0
vt 0 0
vt 1 0
vt 1 0
vn -0 -1 0
vn -0 -1 0
vn -0 -1 0
vn -0 -1 0
vn -0 1 0
vn -0 1 0
vn -0 1 0
vn -0 1 0
vn 1 0 0
vn 1 0 0
vn 1 0 0
vn 1 0 0
vn -1 0 0
vn -1 0 0
vn -1 0 0
vn -1 0 0
vn -0 0 -1
vn -0 0 -1
vn -0 0 -1
vn -0 0 -1
vn -0 0 1
vn -0 0 1
vn -0 0 1
vn -0 0 1
g Plane.051_0
f 3/3/3 2/2/2 1/1/1
f 4/4/4 3/3/3 1/1/1
f 7/7/7 6/6/6 5/5/5
f 8/8/8 7/7/7 5/5/5
f 11/11/11 10/10/10 9/9/9
f 12/12/12 11/11/11 9/9/9
f 15/15/15 14/14/14 13/13/13
f 16/16/16 15/15/15 13/13/13
f 19/19/19 18/18/18 17/17/17
f 20/20/20 19/19/19 17/17/17
f 23/23/23 22/22/22 21/21/21
f 24/24/24 23/23/23 21/21/21
