g Plane.003
v 0.00035643578 2.2594438 0.0005366802
v 0.0003569126 0.13722968 0.0005366802
v -0.01265645 0.08848882 0.0005366802
v -0.04941821 2.2594438 0.0005364418
v -0.049417973 1.3889824 0.0005364418
v -0.04971552 0.047168255 0.0005366802
v -0.0606153 1.3470429 0.0005364418
v -0.10517812 0.019558668 0.0005366802
v -0.09250307 1.3114884 0.0005364418
v -0.14022636 1.2877315 0.0005362034
v -0.17060065 0.009863615 0.0005366802
v -0.19651985 1.2793893 0.00053596497
v -1.0000415 0.009863377 0.0005352497
v -0.9608381 1.2793891 0.0005354881
v -1.0038953 1.2877314 0.0005354881
v -1.0500813 0.01955843 0.0005352497
v -1.0403972 1.3114883 0.0005352497
v -1.0647869 1.3470428 0.0005352497
v -1.0925028 0.047168016 0.0005352497
v -1.0733516 1.3889823 0.0005352497
v -1.0733519 2.2594435 0.0005352497
v -1.1308019 2.2594435 0.0005350113
v -1.1208482 0.08848858 0.0005350113
v -1.1308017 0.13722944 0.0005350113
v 0.0003569126 0.13722968 -0.094908476
v 0.00035643578 2.2594438 0.0005366802
v 0.0003566742 2.2594438 -0.094908714
v 0.0003569126 0.13722968 0.0005366802
v -0.01265645 0.08848882 0.0005366802
v -0.01265645 0.08848882 -0.094908476
v -0.04971552 0.047168255 0.0005366802
v -0.04971528 0.047168255 -0.094908476
v -0.10517812 0.019558668 0.0005366802
v -0.10517788 0.019558668 -0.094908476
v -0.17060065 0.009863615 0.0005366802
v -0.17060065 0.009863615 -0.094908714
v -1.0000415 0.009863377 -0.09490991
v -1.0000415 0.009863377 0.0005352497
v -1.0500813 0.01955843 0.0005352497
v -1.0500813 0.01955843 -0.09490991
v -1.0925028 0.047168016 0.0005352497
v -1.0925028 0.047168016 -0.094910145
v -1.1308019 2.2594435 -0.094910145
v -1.1308017 0.13722944 -0.094910145
v -1.1208482 0.08848858 -0.094910145
v -1.0925028 0.047168016 -0.094910145
v -1.0733519 2.2594435 -0.094910145
v -1.0733516 1.3889823 -0.094910145
v -1.0647869 1.3470428 -0.09490991
v -1.0500813 0.01955843 -0.09490991
v -1.0403972 1.3114883 -0.09490991
v -1.0038953 1.2877314 -0.09490967
v -1.0000415 0.009863377 -0.09490991
v -0.9608381 1.2793891 -0.09490967
v -0.19651985 1.2793893 -0.09490919
v -0.17060065 0.009863615 -0.094908714
v -0.14022636 1.2877315 -0.09490895
v -0.10517788 0.019558668 -0.094908476
v -0.09250307 1.3114884 -0.09490895
v -0.0606153 1.3470429 -0.094908714
v -0.04971528 0.047168255 -0.094908476
v -0.049417973 1.3889824 -0.094908714
v -0.01265645 0.08848882 -0.094908476
v -0.049417973 2.2594438 -0.094908714
v 0.0003566742 2.2594438 -0.094908714
v 0.0003569126 0.13722968 -0.094908476
v -1.1308017 0.13722944 0.0005350113
v -1.1308019 2.2594435 -0.094910145
v -1.1308019 2.2594435 0.0005350113
v -1.1308017 0.13722944 -0.094910145
v -1.1208482 0.08848858 -0.094910145
v -1.1208482 0.08848858 0.0005350113
v -1.0925028 0.047168016 -0.094910145
v -1.0925028 0.047168016 0.0005352497
v 0.0003566742 2.2594438 -0.094908714
v 0.00035643578 2.2594438 0.0005366802
v -0.04941821 2.2594438 0.0005364418
v -0.049417973 2.2594438 -0.094908714
v -1.0403972 1.3114883 -0.09490991
v -1.0038953 1.2877314 0.0005354881
v -1.0403972 1.3114883 0.0005352497
v -1.0038953 1.2877314 -0.09490967
v -0.9608381 1.2793891 0.0005354881
v -0.9608381 1.2793891 -0.09490967
v -0.19651985 1.2793893 0.00053596497
v -0.19651985 1.2793893 -0.09490919
v -0.14022636 1.2877315 0.0005362034
v -0.14022636 1.2877315 -0.09490895
v -0.09250307 1.3114884 0.0005364418
v -0.09250307 1.3114884 -0.09490895
v -0.0606153 1.3470429 0.0005364418
v -0.0606153 1.3470429 -0.094908714
v -0.049417973 1.3889824 0.0005364418
v -0.049417973 1.3889824 -0.094908714
v -0.04941821 2.2594438 0.0005364418
v -0.049417973 2.2594438 -0.094908714
v -1.0647869 1.3470428 -0.09490991
v -1.0403972 1.3114883 -0.09490991
v -1.0403972 1.3114883 0.0005352497
v -1.0647869 1.3470428 0.0005352497
v -1.0733516 1.3889823 -0.094910145
v -1.0733516 1.3889823 0.0005352497
v -1.0733519 2.2594435 -0.094910145
v -1.0733519 2.2594435 0.0005352497
v -1.0733519 2.2594435 0.0005352497
v -1.1308019 2.2594435 0.0005350113
v -1.1308019 2.2594435 -0.094910145
v -1.0733519 2.2594435 -0.094910145
v -0.0606153 1.3470429 -0.063236475
v -0.049417734 1.3889824 -0.063236475
v -0.049417973 2.2594438 -0.063236475
v -1.0403972 1.3114883 -0.063236475
v -1.0403972 1.3114883 -0.031137228
v -1.0038953 1.2877314 -0.031137228
v -1.0038953 1.2877314 -0.063236475
v -0.9608381 1.2793891 -0.031137228
v -0.9608381 1.2793891 -0.06323624
v -0.19651985 1.2793893 -0.031137466
v -0.19651985 1.2793893 -0.06323671
v -0.14022636 1.2877315 -0.031137466
v -0.14022636 1.2877315 -0.06323671
v -0.09250307 1.3114884 -0.031137466
v -0.09250307 1.3114884 -0.063236475
v -0.0606153 1.3470429 -0.031137228
v -0.0606153 1.3470429 -0.063236475
v -0.049417973 1.3889824 -0.031137228
v -0.049417734 1.3889824 -0.063236475
v -0.049417973 2.2594438 -0.031137466
v -0.049417973 2.2594438 -0.063236475
v -1.0647869 1.3470428 -0.063236475
v -1.0403972 1.3114883 -0.031137228
v -1.0403972 1.3114883 -0.063236475
v -1.0647871 1.3470428 -0.031137228
v -1.0733516 1.3889823 -0.063236475
v -1.0733519 1.3889823 -0.031137228
v -1.0733519 2.2594435 -0.063236475
v -1.0733519 2.2594435 -0.031137228
v -0.049417973 2.2594438 -0.031137466
v -1.0733519 2.2594435 -0.031137228
v -1.0733519 2.2594435 -0.063236475
v -0.049417973 2.2594438 -0.063236475
v -1.0733519 2.2594435 -0.031137228
v -0.049417973 2.2594438 -0.031137466
v -0.049417973 1.3889824 -0.031137228
v -0.0606153 1.3470429 -0.031137228
v -0.09250307 1.3114884 -0.031137466
v -0.14022636 1.2877315 -0.031137466
v -0.19651985 1.2793893 -0.031137466
v -0.9608381 1.2793891 -0.031137228
v -1.0038953 1.2877314 -0.031137228
v -1.0403972 1.3114883 -0.031137228
v -1.0403972 1.3114883 -0.031137228
v -1.0647871 1.3470428 -0.031137228
v -1.0733519 2.2594435 -0.031137228
v -1.0733519 1.3889823 -0.031137228
v -0.049417973 2.2594438 -0.063236475
v -1.0733519 2.2594435 -0.063236475
v -0.0606153 1.3470429 -0.063236475
v -0.09250307 1.3114884 -0.063236475
v -0.14022636 1.2877315 -0.06323671
v -0.19651985 1.2793893 -0.06323671
v -0.9608381 1.2793891 -0.06323624
v -1.0038953 1.2877314 -0.063236475
v -1.0403972 1.3114883 -0.063236475
v -1.0733519 2.2594435 -0.063236475
v -1.0647869 1.3470428 -0.063236475
v -1.0403972 1.3114883 -0.063236475
v -1.0733516 1.3889823 -0.063236475
v -0.7369399 1.0911779 -0.120153904
v -0.7369399 1.0911779 -0.073280334
v -0.7369399 1.1687729 -0.073280334
v -0.7369399 1.1687729 -0.120153904
v -0.7369399 1.0911779 -0.073280334
v -1.0400164 1.0911779 -0.073280334
v -1.0400164 1.1687729 -0.073280334
v -0.7369399 1.1687729 -0.073280334
v -1.0400164 1.0911779 -0.073280334
v -1.0400164 1.0911779 -0.120153904
v -1.0400164 1.1687729 -0.120153904
v -1.0400164 1.1687729 -0.073280334
v -1.0400164 1.0911779 -0.120153904
v -0.7369399 1.0911779 -0.120153904
v -0.7369399 1.1687729 -0.120153904
v -1.0400164 1.1687729 -0.120153904
v -0.7369399 1.0911779 -0.073280334
v -0.7369399 1.0911779 -0.120153904
v -1.0400164 1.0911779 -0.120153904
v -1.0400164 1.0911779 -0.073280334
v -1.0400164 1.1687729 -0.073280334
v -1.0400164 1.1687729 -0.120153904
v -0.7369399 1.1687729 -0.120153904
v -0.7369399 1.1687729 -0.073280334
vt 0.625 0.75
vt 0.44458008 0.75
vt 0.41796875 0.75146484
vt 0.625 0.7661133
vt 0.55029297 0.7661133
vt 0.39526367 0.75634766
vt 0.5463867 0.76953125
vt 0.3803711 0.7636719
vt 0.54296875 0.78027344
vt 0.54052734 0.79541016
vt 0.375 0.77246094
vt 0.5390625 0.81396484
vt 0.375 0.97753906
vt 0.5395508 0.94433594
vt 0.54052734 0.9584961
vt 0.3803711 0.9863281
vt 0.54296875 0.9707031
vt 0.5463867 0.9785156
vt 0.39526367 0.99365234
vt 0.55029297 0.9814453
vt 0.625 0.9814453
vt 0.625 1
vt 0.41796875 0.99853516
vt 0.44458008 1
vt 0.44458008 0.5
vt 0.625 0.75
vt 0.625 0.5
vt 0.44458008 0.75
vt 0.41796875 0.75
vt 0.41796875 0.5
vt 0.375 0.75
vt 0.375 0.5
vt 0.36132812 0.75
vt 0.36132812 0.5
vt 0.3527832 0.75
vt 0.3527832 0.5
vt 0.1472168 0.5
vt 0.1472168 0.75
vt 0.13879395 0.75
vt 0.13879395 0.5
vt 0.125 0.75
vt 0.125 0.5
vt 0.625 0.25
vt 0.44458008 0.25
vt 0.41796875 0.25170898
vt 0.39526367 0.2565918
vt 0.625 0.26879883
vt 0.55029297 0.26879883
vt 0.5463867 0.27148438
vt 0.3803711 0.26367188
vt 0.54296875 0.27954102
vt 0.54052734 0.2915039
vt 0.375 0.2722168
vt 0.5395508 0.30541992
vt 0.5390625 0.4362793
vt 0.375 0.4777832
vt 0.54052734 0.45458984
vt 0.3803711 0.48632812
vt 0.54296875 0.4699707
vt 0.5463867 0.4802246
vt 0.39526367 0.4934082
vt 0.55029297 0.48388672
vt 0.41796875 0.49829102
vt 0.625 0.48388672
vt 0.625 0.5
vt 0.44458008 0.5
vt 0.44458008 0
vt 0.625 0.25
vt 0.625 0
vt 0.44458008 0.25
vt 0.41796875 0.25
vt 0.41796875 0
vt 0.375 0.25
vt 0.375 0
vt 0.625 0.5
vt 0.625 0.75
vt 0.6411133 0.75
vt 0.6411133 0.5
vt 0.125 0.55615234
vt 0.13879395 0.69384766
vt 0.125 0.69384766
vt 0.13879395 0.55615234
vt 0.1472168 0.69384766
vt 0.1472168 0.55615234
vt 0.3527832 0.69384766
vt 0.3527832 0.55615234
vt 0.36132812 0.69384766
vt 0.36132812 0.55615234
vt 0.375 0.69384766
vt 0.375 0.55615234
vt 0.41796875 0.69384766
vt 0.41796875 0.55615234
vt 0.44458008 0.69384766
vt 0.44458008 0.55615234
vt 0.5307617 0.69384766
vt 0.5307617 0.55615234
vt 0.41796875 0.19384766
vt 0.375 0.19384766
vt 0.375 0.056121826
vt 0.41796875 0.056121826
vt 0.44458008 0.19384766
vt 0.44458008 0.056121826
vt 0.5307617 0.19384766
vt 0.5307617 0.056121826
vt 0.8564453 0.75
vt 0.875 0.75
vt 0.875 0.5
vt 0.8564453 0.5
vt 0.41796875 0.55615234
vt 0.44458008 0.55615234
vt 0.5307617 0.55615234
vt 0.125 0.55615234
vt 0.125 0.69384766
vt 0.13879395 0.69384766
vt 0.13879395 0.55615234
vt 0.1472168 0.69384766
vt 0.1472168 0.55615234
vt 0.3527832 0.69384766
vt 0.3527832 0.55615234
vt 0.36132812 0.69384766
vt 0.36132812 0.55615234
vt 0.375 0.69384766
vt 0.375 0.55615234
vt 0.41796875 0.69384766
vt 0.41796875 0.55615234
vt 0.44458008 0.69384766
vt 0.44458008 0.55615234
vt 0.5307617 0.69384766
vt 0.5307617 0.55615234
vt 0.41796875 0.19384766
vt 0.375 0.056121826
vt 0.375 0.19384766
vt 0.41796875 0.056121826
vt 0.44458008 0.19384766
vt 0.44458008 0.056121826
vt 0.5307617 0.19384766
vt 0.5307617 0.056121826
vt 0.5307617 0.69384766
vt 0.5307617 0.056121826
vt 0.5307617 0.19384766
vt 0.5307617 0.55615234
vt 0.5307617 0.056121826
vt 0.5307617 0.69384766
vt 0.44458008 0.69384766
vt 0.41796875 0.69384766
vt 0.375 0.69384766
vt 0.36132812 0.69384766
vt 0.3527832 0.69384766
vt 0.1472168 0.69384766
vt 0.13879395 0.69384766
vt 0.375 0.056121826
vt 0.375 0.056121826
vt 0.41796875 0.056121826
vt 0.5307617 0.056121826
vt 0.44458008 0.056121826
vt 0.5307617 0.55615234
vt 0.5307617 0.19384766
vt 0.41796875 0.55615234
vt 0.375 0.55615234
vt 0.36132812 0.55615234
vt 0.3527832 0.55615234
vt 0.1472168 0.55615234
vt 0.13879395 0.55615234
vt 0.375 0.19384766
vt 0.5307617 0.19384766
vt 0.41796875 0.19384766
vt 0.375 0.19384766
vt 0.44458008 0.19384766
vt 0.375 0
vt 0.375 0.25
vt 0.625 0.25
vt 0.625 0
vt 0.375 0.25
vt 0.375 0.5
vt 0.625 0.5
vt 0.625 0.25
vt 0.375 0.5
vt 0.375 0.75
vt 0.625 0.75
vt 0.625 0.5
vt 0.375 0.75
vt 0.375 1
vt 0.625 1
vt 0.625 0.75
vt 0.125 0.5
vt 0.125 0.75
vt 0.375 0.75
vt 0.375 0.5
vt 0.625 0.5
vt 0.625 0.75
vt 0.875 0.75
vt 0.875 0.5
vn -0 0 1
vn -0 0 1
vn -0 0 1
vn -0 0 1
vn -0 0 1
vn -0 0 1
vn -0 0 1
vn -0 0 1
vn -0 0 1
vn -0 0 1
vn -0 0 1
vn -0 0 1
vn -0 0 1
vn -0 0 1
vn -0 0 1
vn -0 0 1
vn -0 0 1
vn -0 0 1
vn -0 0 1
vn -0 0 1
vn -0 0 1
vn -0 0 1
vn -0 0 1
vn -0 0 1
vn 0.9916992 -0.13012695 0
vn 1 0 0
vn 1 0 0
vn 0.9916992 -0.13012695 0
vn 0.87939453 -0.47583008 0
vn 0.87939453 -0.47583008 0
vn 0.60595703 -0.79541016 0
vn 0.60595703 -0.79541016 0
vn 0.2998047 -0.95410156 0
vn 0.2998047 -0.95410156 0
vn 0.07348633 -0.9970703 0
vn 0.07348633 -0.9970703 0
vn -0.09552002 -0.99560547 0
vn -0.09552002 -0.99560547 0
vn -0.37475586 -0.9272461 0
vn -0.37475586 -0.9272461 0
vn -0.6982422 -0.7158203 0
vn -0.6982422 -0.7158203 0
vn -0 0 -1
vn -0 0 -1
vn -0 0 -1
vn -0 0 -1
vn -0 0 -1
vn -0 0 -1
vn -0 0 -1
vn -0 0 -1
vn -0 0 -1
vn -0 0 -1
vn -0 0 -1
vn -0 0 -1
vn -0 0 -1
vn -0 0 -1
vn -0 0 -1
vn -0 0 -1
vn -0 0 -1
vn -0 0 -1
vn -0 0 -1
vn -0 0 -1
vn -0 0 -1
vn -0 0 -1
vn -0 0 -1
vn -0 0 -1
vn -0.9951172 -0.1005249 0
vn -1 0 0
vn -1 0 0
vn -0.9951172 -0.1005249 0
vn -0.92041016 -0.390625 0
vn -0.92041016 -0.390625 0
vn -0.6982422 -0.7158203 0
vn -0.6982422 -0.7158203 0
vn -0 1 0
vn -0 1 0
vn -0 1 0
vn -0 1 0
vn 0.6982422 0.7158203 0
vn 0.37475586 0.9272461 0
vn 0.6982422 0.7158203 0
vn 0.37475586 0.9272461 0
vn 0.09552002 0.99560547 0
vn 0.09552002 0.99560547 0
vn -0.07348633 0.9970703 0
vn -0.07348633 0.9970703 0
vn -0.2998047 0.95410156 0
vn -0.2998047 0.95410156 0
vn -0.60595703 0.79541016 0
vn -0.60595703 0.79541016 0
vn -0.87939453 0.47583008 0
vn -0.87939453 0.47583008 0
vn -0.9916992 0.13012695 0
vn -0.9916992 0.13012695 0
vn -1 0 0
vn -1 0 0
vn 0.92041016 0.390625 0
vn 0.6982422 0.7158203 0
vn 0.6982422 0.7158203 0
vn 0.92041016 0.390625 0
vn 0.9951172 0.1005249 0
vn 0.9951172 0.1005249 0
vn 1 0 0
vn 1 0 0
vn -0 1 0
vn -0 1 0
vn -0 1 0
vn -0 1 0
vn -0 0 -1
vn -0 0 -1
vn -0 0 -1
vn -0.6982422 -0.7158203 0
vn -0.6982422 -0.7158203 0
vn -0.37475586 -0.9272461 0
vn -0.37475586 -0.9272461 0
vn -0.09552002 -0.99560547 0
vn -0.09552002 -0.99560547 0
vn 0.07348633 -0.9970703 0
vn 0.07348633 -0.9970703 0
vn 0.2998047 -0.95410156 0
vn 0.2998047 -0.95410156 0
vn 0.60595703 -0.79541016 0
vn 0.60595703 -0.79541016 0
vn 0.87939453 -0.47583008 0
vn 0.87939453 -0.47583008 0
vn 0.9916992 -0.13012695 0
vn 0.9916992 -0.13012695 0
vn 1 0 0
vn 1 0 0
vn -0.92041016 -0.390625 0
vn -0.6982422 -0.7158203 0
vn -0.6982422 -0.7158203 0
vn -0.92041016 -0.390625 0
vn -0.9951172 -0.1005249 0
vn -0.9951172 -0.1005249 0
vn -1 0 0
vn -1 0 0
vn -0 1 0
vn -0 1 0
vn -0 1 0
vn -0 1 0
vn -0 0 1
vn -0 0 1
vn -0 0 1
vn -0 0 1
vn -0 0 1
vn -0 0 1
vn -0 0 1
vn -0 0 1
vn -0 0 1
vn -0 0 1
vn -0 0 1
vn -0 0 1
vn -0 0 1
vn -0 0 1
vn -0 0 -1
vn -0 0 -1
vn -0 0 -1
vn -0 0 -1
vn -0 0 -1
vn -0 0 -1
vn -0 0 -1
vn -0 0 -1
vn -0 0 -1
vn -0 0 -1
vn -0 0 -1
vn -0 0 -1
vn -0 0 -1
vn 1 0 0
vn 1 0 0
vn 1 0 0
vn 1 0 0
vn -0 0 1
vn -0 0 1
vn -0 0 1
vn -0 0 1
vn -1 0 0
vn -1 0 0
vn -1 0 0
vn -1 0 0
vn -0 0 -1
vn -0 0 -1
vn -0 0 -1
vn -0 0 -1
vn -0 -1 0
vn -0 -1 0
vn -0 -1 0
vn -0 -1 0
vn -0 1 0
vn -0 1 0
vn -0 1 0
vn -0 1 0
g Plane.003_0
f 3/3/3 2/2/2 1/1/1
f 1/1/1 4/4/4 3/3/3
f 4/4/4 5/5/5 3/3/3
f 6/6/6 3/3/3 5/5/5
f 5/5/5 7/7/7 6/6/6
f 7/7/7 8/8/8 6/6/6
f 7/7/7 9/9/9 8/8/8
f 9/9/9 10/10/10 8/8/8
f 10/10/10 11/11/11 8/8/8
f 10/10/10 12/12/12 11/11/11
f 12/12/12 13/13/13 11/11/11
f 12/12/12 14/14/14 13/13/13
f 14/14/14 15/15/15 13/13/13
f 15/15/15 16/16/16 13/13/13
f 15/15/15 17/17/17 16/16/16
f 17/17/17 18/18/18 16/16/16
f 18/18/18 19/19/19 16/16/16
f 18/18/18 20/20/20 19/19/19
f 20/20/20 21/21/21 19/19/19
f 21/21/21 22/22/22 19/19/19
f 22/22/22 23/23/23 19/19/19
f 22/22/22 24/24/24 23/23/23
f 27/27/27 26/26/26 25/25/25
f 26/26/26 28/28/28 25/25/25
f 25/25/25 28/28/28 29/29/29
f 30/30/30 25/25/25 29/29/29
f 30/30/30 29/29/29 31/31/31
f 32/32/32 30/30/30 31/31/31
f 32/32/32 31/31/31 33/33/33
f 34/34/34 32/32/32 33/33/33
f 34/34/34 33/33/33 35/35/35
f 36/36/36 34/34/34 35/35/35
f 36/36/36 35/35/35 37/37/37
f 35/35/35 38/38/38 37/37/37
f 38/38/38 39/39/39 37/37/37
f 39/39/39 40/40/40 37/37/37
f 39/39/39 41/41/41 40/40/40
f 41/41/41 42/42/42 40/40/40
f 45/45/45 44/44/44 43/43/43
f 46/46/46 45/45/45 43/43/43
f 46/46/46 43/43/43 47/47/47
f 46/46/46 47/47/47 48/48/48
f 46/46/46 48/48/48 49/49/49
f 50/50/50 46/46/46 49/49/49
f 50/50/50 49/49/49 51/51/51
f 50/50/50 51/51/51 52/52/52
f 53/53/53 50/50/50 52/52/52
f 53/53/53 52/52/52 54/54/54
f 53/53/53 54/54/54 55/55/55
f 56/56/56 53/53/53 55/55/55
f 56/56/56 55/55/55 57/57/57
f 58/58/58 56/56/56 57/57/57
f 58/58/58 57/57/57 59/59/59
f 58/58/58 59/59/59 60/60/60
f 61/61/61 58/58/58 60/60/60
f 61/61/61 60/60/60 62/62/62
f 62/62/62 63/63/63 61/61/61
f 63/63/63 62/62/62 64/64/64
f 63/63/63 64/64/64 65/65/65
f 65/65/65 66/66/66 63/63/63
f 69/69/69 68/68/68 67/67/67
f 68/68/68 70/70/70 67/67/67
f 67/67/67 70/70/70 71/71/71
f 72/72/72 67/67/67 71/71/71
f 72/72/72 71/71/71 73/73/73
f 74/74/74 72/72/72 73/73/73
f 77/77/77 76/76/76 75/75/75
f 78/78/78 77/77/77 75/75/75
f 81/81/81 80/80/80 79/79/79
f 80/80/80 82/82/82 79/79/79
f 80/80/80 83/83/83 82/82/82
f 83/83/83 84/84/84 82/82/82
f 83/83/83 85/85/85 84/84/84
f 85/85/85 86/86/86 84/84/84
f 86/86/86 85/85/85 87/87/87
f 88/88/88 86/86/86 87/87/87
f 88/88/88 87/87/87 89/89/89
f 90/90/90 88/88/88 89/89/89
f 90/90/90 89/89/89 91/91/91
f 92/92/92 90/90/90 91/91/91
f 92/92/92 91/91/91 93/93/93
f 94/94/94 92/92/92 93/93/93
f 93/93/93 95/95/95 94/94/94
f 95/95/95 96/96/96 94/94/94
f 99/99/99 98/98/98 97/97/97
f 100/100/100 99/99/99 97/97/97
f 100/100/100 97/97/97 101/101/101
f 102/102/102 100/100/100 101/101/101
f 101/101/101 103/103/103 102/102/102
f 103/103/103 104/104/104 102/102/102
f 107/107/107 106/106/106 105/105/105
f 108/108/108 107/107/107 105/105/105
g Plane.003_1
f 111/111/111 110/110/110 109/109/109
f 114/114/114 113/113/113 112/112/112
f 115/115/115 114/114/114 112/112/112
f 116/116/116 114/114/114 115/115/115
f 117/117/117 116/116/116 115/115/115
f 118/118/118 116/116/116 117/117/117
f 119/119/119 118/118/118 117/117/117
f 118/118/118 119/119/119 120/120/120
f 119/119/119 121/121/121 120/120/120
f 120/120/120 121/121/121 122/122/122
f 121/121/121 123/123/123 122/122/122
f 122/122/122 123/123/123 124/124/124
f 123/123/123 125/125/125 124/124/124
f 124/124/124 125/125/125 126/126/126
f 125/125/125 127/127/127 126/126/126
f 128/128/128 126/126/126 127/127/127
f 129/129/129 128/128/128 127/127/127
f 132/132/132 131/131/131 130/130/130
f 131/131/131 133/133/133 130/130/130
f 130/130/130 133/133/133 134/134/134
f 133/133/133 135/135/135 134/134/134
f 136/136/136 134/134/134 135/135/135
f 137/137/137 136/136/136 135/135/135
f 140/140/140 139/139/139 138/138/138
f 141/141/141 140/140/140 138/138/138
f 144/144/144 143/143/143 142/142/142
f 142/142/142 145/145/145 144/144/144
f 142/142/142 146/146/146 145/145/145
f 142/142/142 147/147/147 146/146/146
f 142/142/142 148/148/148 147/147/147
f 142/142/142 149/149/149 148/148/148
f 142/142/142 150/150/150 149/149/149
f 142/142/142 151/151/151 150/150/150
f 154/154/154 153/153/153 152/152/152
f 154/154/154 155/155/155 153/153/153
f 158/158/158 157/157/157 156/156/156
f 158/158/158 159/159/159 157/157/157
f 159/159/159 160/160/160 157/157/157
f 160/160/160 161/161/161 157/157/157
f 161/161/161 162/162/162 157/157/157
f 162/162/162 163/163/163 157/157/157
f 163/163/163 164/164/164 157/157/157
f 167/167/167 166/166/166 165/165/165
f 166/166/166 168/168/168 165/165/165
g Plane.003_2
f 171/171/171 170/170/170 169/169/169
f 172/172/172 171/171/171 169/169/169
f 175/175/175 174/174/174 173/173/173
f 176/176/176 175/175/175 173/173/173
f 179/179/179 178/178/178 177/177/177
f 180/180/180 179/179/179 177/177/177
f 183/183/183 182/182/182 181/181/181
f 184/184/184 183/183/183 181/181/181
f 187/187/187 186/186/186 185/185/185
f 188/188/188 187/187/187 185/185/185
f 191/191/191 190/190/190 189/189/189
f 192/192/192 191/191/191 189/189/189
