g Sphere.011
v 0.09423294 0.10540532 0.29567796
v 0.10824258 0.15947726 0.30075997
v 0.0932223 0.21324557 0.30616635
v 0.054947257 0.06551827 0.2922823
v 0.05319676 0.25230312 0.31044874
v 0.00091208913 0.05050387 0.2914824
v -0.0011092625 0.26618448 0.31245923
v -0.05339394 0.06438519 0.29349288
v -0.055144437 0.25117004 0.3116593
v -0.09341953 0.10344272 0.29777503
v -0.094430156 0.21128301 0.30826342
v -0.10843982 0.15721105 0.30318138
v -0.0011092625 0.26618448 0.31245923
v -0.00047798036 0.26115403 0.36424217
v -0.05451321 0.24613959 0.36344233
v -0.055144437 0.25117004 0.3116593
v 0.05319676 0.25230312 0.31044874
v -0.09379893 0.20625256 0.36004642
v 0.05382799 0.24727267 0.36223176
v -0.094430156 0.21128301 0.30826342
v 0.0932223 0.21324557 0.30616635
v -0.10780859 0.15218064 0.35496438
v 0.09385353 0.20821512 0.35794958
v -0.10843982 0.15721105 0.30318138
v 0.10824258 0.15947726 0.30075997
v -0.0927883 0.09841228 0.349558
v 0.10887381 0.1544468 0.35254318
v -0.09341953 0.10344272 0.29777503
v 0.09423294 0.10540532 0.29567796
v -0.052762713 0.059354752 0.34527588
v 0.09486417 0.10037486 0.34746116
v -0.05339394 0.06438519 0.29349288
v 0.054947257 0.06551827 0.2922823
v 0.0015433156 0.04547344 0.3432654
v 0.055578485 0.06048783 0.3440653
v 0.00091208913 0.05050387 0.2914824
v -0.046561822 0.23273095 0.36204278
v -0.00047798036 0.26115403 0.36424217
v -0.00033199321 0.24557655 0.36272714
v -0.05451321 0.24613959 0.36344233
v 0.05382799 0.24727267 0.36223176
v -0.08017283 0.1986056 0.35913745
v 0.04612952 0.23370036 0.36100706
v -0.09379893 0.20625256 0.36004642
v 0.09385353 0.20821512 0.35794958
v -0.09215879 0.1523443 0.3547895
v 0.08037341 0.20028466 0.35734352
v -0.10780859 0.15218064 0.35496438
v 0.10887381 0.1544468 0.35254318
v -0.079308175 0.106342785 0.35016406
v 0.09322401 0.15428312 0.35271806
v -0.0927883 0.09841228 0.349558
v 0.09486417 0.10037486 0.34746116
v -0.04506419 0.072927065 0.34650052
v 0.081238054 0.10802185 0.34837013
v -0.052762713 0.059354752 0.34527588
v 0.055578485 0.06048783 0.3440653
v 0.0013973285 0.0610509 0.34478047
v 0.04762716 0.07389647 0.3454648
v 0.0015433156 0.04547344 0.3432654
v -0.00033199321 0.24557655 0.36272714
v -0.0005169222 0.24705029 0.34755638
v -0.046746753 0.23420471 0.346872
v -0.046561822 0.23273095 0.36204278
v 0.04612952 0.23370036 0.36100706
v -0.08035775 0.20007934 0.3439667
v 0.04594459 0.23517412 0.34583628
v -0.08017283 0.1986056 0.35913745
v 0.08037341 0.20028466 0.35734352
v -0.09234371 0.15381806 0.33961874
v 0.08018848 0.20175841 0.3421727
v -0.09215879 0.1523443 0.3547895
v 0.09322401 0.15428312 0.35271806
v -0.0794931 0.10781653 0.33499324
v 0.09303909 0.15575686 0.3375473
v -0.079308175 0.106342785 0.35016406
v 0.081238054 0.10802185 0.34837013
v -0.04524912 0.074400835 0.33132973
v 0.08105313 0.10949561 0.33319932
v -0.04506419 0.072927065 0.34650052
v 0.04762716 0.07389647 0.3454648
v 0.0012123991 0.06252465 0.32960972
v 0.047442228 0.07537022 0.330294
v 0.0013973285 0.0610509 0.34478047
v 0.07080355 0.19358325 0.36717787
v 0.08018848 0.20175841 0.3421727
v 0.09303909 0.15575686 0.3375473
v 0.08209371 0.1531677 0.36311412
v 0.08105313 0.10949561 0.33319932
v 0.040717922 0.22294132 0.37039655
v 0.04594459 0.23517412 0.34583628
v 0.0715632 0.11252395 0.35929415
v 0.047442228 0.07537022 0.330294
v -0.000101804035 0.23337536 0.37190777
v -0.0005169222 0.24705029 0.34755638
v 0.042033643 0.08254239 0.3567416
v 0.0012123991 0.06252465 0.32960972
v -0.04071797 0.2220896 0.37130675
v -0.046746753 0.23420471 0.346872
v 0.0014175252 0.071256675 0.35614038
v -0.04524912 0.074400835 0.33132973
v -0.07024759 0.19210805 0.36875418
v -0.08035775 0.20007934 0.3439667
v -0.039402198 0.08169072 0.35765153
v -0.0794931 0.10781653 0.33499324
v -0.08077803 0.15146428 0.36493427
v -0.09234371 0.15381806 0.33961874
v -0.06948781 0.11104873 0.36087045
v -0.032297876 0.20680843 0.38398287
v -0.05594088 0.18280348 0.38193914
v -0.06437222 0.15026164 0.37888062
v -0.055332657 0.117902555 0.37562692
v -0.031244382 0.094396755 0.37304983
v 0.0014383117 0.08604265 0.37183988
v 0.00022184663 0.21584447 0.38446426
v 0.033957973 0.09507868 0.37232128
v 0.032904543 0.20749035 0.38325432
v 0.057601098 0.11908367 0.37436503
v 0.056992866 0.18398461 0.38067725
v 0.06603244 0.15162547 0.3774235
v 0.0013657754 0.10564731 0.3836978
v 0.023582347 0.11182047 0.38402668
v 0.039734732 0.12822008 0.38542292
v 0.045494787 0.15045176 0.38751242
v 0.039319206 0.17255868 0.38973525
v 0.022862688 0.18861721 0.39149582
v 0.0005347191 0.19432451 0.39232245
v -0.020962195 0.11135461 0.38452443
v -0.021681855 0.18815134 0.39199358
v -0.03741871 0.12741314 0.386285
v -0.037834235 0.17175178 0.39059737
v -0.043594293 0.14952002 0.38850787
vt 0 0
vt 0 0
vt 0 0
vt 0 0
vt 0 0
vt 0 0
vt 0 0
vt 0 0
vt 0 0
vt 0 0
vt 0 0
vt 0 0
vt 0 0
vt 0 0
vt 0 0
vt 0 0
vt 0 0
vt 0 0
vt 0 0
vt 0 0
vt 0 0
vt 0 0
vt 0 0
vt 0 0
vt 0 0
vt 0 0
vt 0 0
vt 0 0
vt 0 0
vt 0 0
vt 0 0
vt 0 0
vt 0 0
vt 0 0
vt 0 0
vt 0 0
vt 0 0
vt 0 0
vt 0 0
vt 0 0
vt 0 0
vt 0 0
vt 0 0
vt 0 0
vt 0 0
vt 0 0
vt 0 0
vt 0 0
vt 0 0
vt 0 0
vt 0 0
vt 0 0
vt 0 0
vt 0 0
vt 0 0
vt 0 0
vt 0 0
vt 0 0
vt 0 0
vt 0 0
vt 0 0
vt 0 0
vt 0 0
vt 0 0
vt 0 0
vt 0 0
vt 0 0
vt 0 0
vt 0 0
vt 0 0
vt 0 0
vt 0 0
vt 0 0
vt 0 0
vt 0 0
vt 0 0
vt 0 0
vt 0 0
vt 0 0
vt 0 0
vt 0 0
vt 0 0
vt 0 0
vt 0 0
vt 0 0
vt 0 0
vt 0 0
vt 0 0
vt 0 0
vt 0 0
vt 0 0
vt 0 0
vt 0 0
vt 0 0
vt 0 0
vt 0 0
vt 0 0
vt 0 0
vt 0 0
vt 0 0
vt 0 0
vt 0 0
vt 0 0
vt 0 0
vt 0 0
vt 0 0
vt 0 0
vt 0 0
vt 0 0
vt 0 0
vt 0 0
vt 0 0
vt 0 0
vt 0 0
vt 0 0
vt 0 0
vt 0 0
vt 0 0
vt 0 0
vt 0 0
vt 0 0
vt 0 0
vt 0 0
vt 0 0
vt 0 0
vt 0 0
vt 0 0
vt 0 0
vt 0 0
vt 0 0
vt 0 0
vt 0 0
vn 0.6512506 -0.30677384 -0.694091
vn 0.74914855 0.0710734 -0.65857804
vn 0.6441883 0.4467991 -0.6207995
vn 0.376728 -0.58550024 -0.7178199
vn 0.3644959 0.7197286 -0.5908751
vn -0.0008631684 -0.6904182 -0.72341
vn -0.014988068 0.8167293 -0.5768262
vn -0.38034576 -0.59341747 -0.70936096
vn -0.39257848 0.7118102 -0.58241606
vn -0.6600392 -0.32048845 -0.6794375
vn -0.6671013 0.4330853 -0.6061459
vn -0.76499873 0.055237714 -0.6416586
vn -0.014988068 0.8167293 -0.5768262
vn 0.0008624761 0.6904181 0.72341007
vn -0.37672794 0.5854986 0.71782136
vn -0.39257848 0.7118102 -0.58241606
vn 0.3644959 0.7197286 -0.5908751
vn -0.65125096 0.30677387 0.6940908
vn 0.38034523 0.59341675 0.7093618
vn -0.6671013 0.4330853 -0.6061459
vn 0.6441883 0.4467991 -0.6207995
vn -0.7491487 -0.07107297 0.6585779
vn 0.66003895 0.32048792 0.67943805
vn -0.76499873 0.055237714 -0.6416586
vn 0.74914855 0.0710734 -0.65857804
vn -0.64418894 -0.44679898 0.6207989
vn 0.7649988 -0.055237867 0.6416584
vn -0.6600392 -0.32048845 -0.6794375
vn 0.6512506 -0.30677384 -0.694091
vn -0.3644961 -0.7197273 0.5908767
vn 0.6671013 -0.43308517 0.60614616
vn -0.38034576 -0.59341747 -0.70936096
vn 0.376728 -0.58550024 -0.7178199
vn 0.014987141 -0.81672865 0.5768273
vn 0.3925777 -0.7118105 0.5824161
vn -0.0008631684 -0.6904182 -0.72341
vn 0.33332315 -0.62080806 0.70957243
vn 0.0008624761 0.6904181 0.72341007
vn 0.015293219 -0.7091759 0.7048658
vn -0.37672794 0.5854986 0.71782136
vn 0.38034523 0.59341675 0.7093618
vn 0.5645424 -0.3860486 0.7295604
vn -0.30433103 -0.62747616 0.7166982
vn -0.65125096 0.30677387 0.6940908
vn 0.66003895 0.32048792 0.67943805
vn 0.64699805 -0.067801826 0.7594712
vn -0.53990495 -0.39759886 0.74190146
vn -0.7491487 -0.07107297 0.6585779
vn 0.7649988 -0.055237867 0.6416584
vn 0.55859405 0.24865836 0.79129124
vn -0.6283081 -0.081139736 0.77372164
vn -0.64418894 -0.44679898 0.6207989
vn 0.6671013 -0.43308517 0.60614616
vn 0.32301915 0.47853673 0.8164933
vn -0.5458531 0.23710684 0.8036322
vn -0.3644961 -0.7197273 0.5908767
vn 0.3925777 -0.7118105 0.5824161
vn 0.0033968634 0.5602352 0.8283266
vn -0.31463292 0.47186556 0.82361937
vn 0.014987141 -0.81672865 0.5768273
vn 0.015293219 -0.7091759 0.7048658
vn 0.014627786 -0.43822327 0.8987471
vn 0.18881196 -0.38982078 0.9013266
vn 0.33332315 -0.62080806 0.70957243
vn -0.30433103 -0.62747616 0.7166982
vn 0.3154518 -0.2612444 0.91227275
vn -0.16043282 -0.39347517 0.90522856
vn 0.5645424 -0.3860486 0.7295604
vn -0.53990495 -0.39759886 0.74190146
vn 0.36061174 -0.08694148 0.92865515
vn -0.28945994 -0.26756978 0.9190317
vn 0.64699805 -0.067801826 0.7594712
vn -0.6283081 -0.081139736 0.77372164
vn 0.31219366 0.086385846 0.9460827
vn -0.33787784 -0.09424523 0.93645954
vn 0.55859405 0.24865836 0.79129124
vn -0.5458531 0.23710684 0.8036322
vn 0.1831698 0.21228933 0.95988643
vn -0.29271626 0.08005862 0.95284194
vn 0.32301915 0.47853673 0.8164933
vn -0.31463292 0.47186556 0.82361937
vn 0.008111281 0.25703815 0.9663671
vn -0.16607504 0.20863919 0.96378875
vn 0.0033968634 0.5602352 0.8283266
vn 0.7113346 0.35873762 0.60440916
vn -0.28945994 -0.26756978 0.9190317
vn -0.33787784 -0.09424523 0.93645954
vn 0.82470196 -0.04708696 0.56360406
vn -0.29271626 0.08005862 0.95284194
vn 0.40923616 0.6535305 0.6367288
vn -0.16043282 -0.39347517 0.90522856
vn 0.7189622 -0.45520234 0.5252468
vn -0.16607504 0.20863919 0.96378875
vn -0.0006456012 0.7583016 0.6519034
vn 0.014627786 -0.43822327 0.8987471
vn 0.42244777 -0.7562548 0.4996164
vn 0.008111281 0.25703815 0.9663671
vn -0.4084831 0.6449777 0.6458679
vn 0.18881196 -0.38982078 0.9013266
vn 0.014609374 -0.86957806 0.4935793
vn 0.1831698 0.21228933 0.95988643
vn -0.7049974 0.34392378 0.6202379
vn 0.3154518 -0.2612444 0.91227275
vn -0.39527163 -0.76480746 0.5087533
vn 0.31219366 0.086385846 0.9460827
vn -0.8107362 -0.06419171 0.58188164
vn 0.36061174 -0.08694148 0.92865515
vn -0.6973685 -0.4700157 0.54107535
vn -0.27733716 0.40482754 0.8713202
vn -0.48241 0.19661266 0.8535948
vn -0.55554086 -0.085646935 0.8270665
vn -0.47713527 -0.3663203 0.79884374
vn -0.26820067 -0.5702045 0.776489
vn 0.0152803715 -0.64266604 0.765994
vn 0.004729941 0.483205 0.8754945
vn 0.29734847 -0.56428957 0.77016956
vn 0.28821126 0.4107437 0.86499935
vn 0.50242347 -0.35607657 0.787896
vn 0.49714813 0.20685954 0.84264636
vn 0.57555544 -0.07381638 0.8144244
vn 0.014116531 -0.3484218 0.9372316
vn 0.14187111 -0.3129231 0.93912286
vn 0.23475412 -0.2186187 0.94715166
vn 0.26787695 -0.09077749 0.959167
vn 0.23236436 0.03634612 0.97194946
vn 0.1377321 0.12869 0.9820738
vn 0.009337446 0.16150948 0.9868269
vn -0.11427886 -0.31560212 0.9419849
vn -0.11841698 0.12601213 0.98493576
vn -0.20891148 -0.22325857 0.95210904
vn -0.21130052 0.031707052 0.9769067
vn -0.24442361 -0.096135736 0.96489125
g Sphere.011_0
f 3/3/3 2/2/2 1/1/1
f 1/1/1 4/4/4 3/3/3
f 4/4/4 5/5/5 3/3/3
f 4/4/4 6/6/6 5/5/5
f 6/6/6 7/7/7 5/5/5
f 6/6/6 8/8/8 7/7/7
f 8/8/8 9/9/9 7/7/7
f 8/8/8 10/10/10 9/9/9
f 10/10/10 11/11/11 9/9/9
f 10/10/10 12/12/12 11/11/11
f 15/15/15 14/14/14 13/13/13
f 16/16/16 15/15/15 13/13/13
f 13/13/13 14/14/14 17/17/17
f 18/18/18 15/15/15 16/16/16
f 14/14/14 19/19/19 17/17/17
f 20/20/20 18/18/18 16/16/16
f 17/17/17 19/19/19 21/21/21
f 22/22/22 18/18/18 20/20/20
f 19/19/19 23/23/23 21/21/21
f 24/24/24 22/22/22 20/20/20
f 21/21/21 23/23/23 25/25/25
f 26/26/26 22/22/22 24/24/24
f 23/23/23 27/27/27 25/25/25
f 28/28/28 26/26/26 24/24/24
f 25/25/25 27/27/27 29/29/29
f 30/30/30 26/26/26 28/28/28
f 27/27/27 31/31/31 29/29/29
f 32/32/32 30/30/30 28/28/28
f 29/29/29 31/31/31 33/33/33
f 34/34/34 30/30/30 32/32/32
f 31/31/31 35/35/35 33/33/33
f 36/36/36 34/34/34 32/32/32
f 33/33/33 35/35/35 36/36/36
f 35/35/35 34/34/34 36/36/36
f 39/39/39 38/38/38 37/37/37
f 38/38/38 40/40/40 37/37/37
f 41/41/41 38/38/38 39/39/39
f 37/37/37 40/40/40 42/42/42
f 43/43/43 41/41/41 39/39/39
f 40/40/40 44/44/44 42/42/42
f 45/45/45 41/41/41 43/43/43
f 42/42/42 44/44/44 46/46/46
f 47/47/47 45/45/45 43/43/43
f 44/44/44 48/48/48 46/46/46
f 49/49/49 45/45/45 47/47/47
f 46/46/46 48/48/48 50/50/50
f 51/51/51 49/49/49 47/47/47
f 48/48/48 52/52/52 50/50/50
f 53/53/53 49/49/49 51/51/51
f 50/50/50 52/52/52 54/54/54
f 55/55/55 53/53/53 51/51/51
f 52/52/52 56/56/56 54/54/54
f 57/57/57 53/53/53 55/55/55
f 54/54/54 56/56/56 58/58/58
f 59/59/59 57/57/57 55/55/55
f 56/56/56 60/60/60 58/58/58
f 60/60/60 57/57/57 59/59/59
f 58/58/58 60/60/60 59/59/59
f 63/63/63 62/62/62 61/61/61
f 64/64/64 63/63/63 61/61/61
f 61/61/61 62/62/62 65/65/65
f 66/66/66 63/63/63 64/64/64
f 62/62/62 67/67/67 65/65/65
f 68/68/68 66/66/66 64/64/64
f 65/65/65 67/67/67 69/69/69
f 70/70/70 66/66/66 68/68/68
f 67/67/67 71/71/71 69/69/69
f 72/72/72 70/70/70 68/68/68
f 69/69/69 71/71/71 73/73/73
f 74/74/74 70/70/70 72/72/72
f 71/71/71 75/75/75 73/73/73
f 76/76/76 74/74/74 72/72/72
f 73/73/73 75/75/75 77/77/77
f 78/78/78 74/74/74 76/76/76
f 75/75/75 79/79/79 77/77/77
f 80/80/80 78/78/78 76/76/76
f 77/77/77 79/79/79 81/81/81
f 82/82/82 78/78/78 80/80/80
f 79/79/79 83/83/83 81/81/81
f 84/84/84 82/82/82 80/80/80
f 81/81/81 83/83/83 84/84/84
f 83/83/83 82/82/82 84/84/84
g Sphere.011_1
f 87/87/87 86/86/86 85/85/85
f 88/88/88 87/87/87 85/85/85
f 89/89/89 87/87/87 88/88/88
f 85/85/85 86/86/86 90/90/90
f 86/86/86 91/91/91 90/90/90
f 92/92/92 89/89/89 88/88/88
f 93/93/93 89/89/89 92/92/92
f 90/90/90 91/91/91 94/94/94
f 91/91/91 95/95/95 94/94/94
f 96/96/96 93/93/93 92/92/92
f 97/97/97 93/93/93 96/96/96
f 94/94/94 95/95/95 98/98/98
f 95/95/95 99/99/99 98/98/98
f 100/100/100 97/97/97 96/96/96
f 101/101/101 97/97/97 100/100/100
f 98/98/98 99/99/99 102/102/102
f 99/99/99 103/103/103 102/102/102
f 104/104/104 101/101/101 100/100/100
f 105/105/105 101/101/101 104/104/104
f 102/102/102 103/103/103 106/106/106
f 103/103/103 107/107/107 106/106/106
f 107/107/107 105/105/105 108/108/108
f 108/108/108 105/105/105 104/104/104
f 106/106/106 107/107/107 108/108/108
f 94/94/94 98/98/98 109/109/109
f 98/98/98 102/102/102 110/110/110
f 109/109/109 98/98/98 110/110/110
f 102/102/102 106/106/106 111/111/111
f 110/110/110 102/102/102 111/111/111
f 106/106/106 108/108/108 112/112/112
f 111/111/111 106/106/106 112/112/112
f 108/108/108 104/104/104 113/113/113
f 112/112/112 108/108/108 113/113/113
f 104/104/104 100/100/100 114/114/114
f 113/113/113 104/104/104 114/114/114
f 115/115/115 94/94/94 109/109/109
f 90/90/90 94/94/94 115/115/115
f 114/114/114 100/100/100 116/116/116
f 100/100/100 96/96/96 116/116/116
f 117/117/117 90/90/90 115/115/115
f 85/85/85 90/90/90 117/117/117
f 116/116/116 96/96/96 118/118/118
f 96/96/96 92/92/92 118/118/118
f 119/119/119 85/85/85 117/117/117
f 88/88/88 85/85/85 119/119/119
f 92/92/92 88/88/88 120/120/120
f 118/118/118 92/92/92 120/120/120
f 120/120/120 88/88/88 119/119/119
f 113/113/113 114/114/114 121/121/121
f 114/114/114 116/116/116 122/122/122
f 121/121/121 114/114/114 122/122/122
f 116/116/116 118/118/118 123/123/123
f 122/122/122 116/116/116 123/123/123
f 118/118/118 120/120/120 124/124/124
f 123/123/123 118/118/118 124/124/124
f 124/124/124 120/120/120 125/125/125
f 123/123/123 124/124/124 125/125/125
f 120/120/120 119/119/119 125/125/125
f 125/125/125 122/122/122 123/123/123
f 125/125/125 119/119/119 126/126/126
f 125/125/125 126/126/126 122/122/122
f 119/119/119 117/117/117 126/126/126
f 126/126/126 121/121/121 122/122/122
f 126/126/126 117/117/117 127/127/127
f 126/126/126 127/127/127 121/121/121
f 117/117/117 115/115/115 127/127/127
f 128/128/128 113/113/113 121/121/121
f 127/127/127 128/128/128 121/121/121
f 112/112/112 113/113/113 128/128/128
f 127/127/127 115/115/115 129/129/129
f 127/127/127 129/129/129 128/128/128
f 115/115/115 109/109/109 129/129/129
f 130/130/130 112/112/112 128/128/128
f 129/129/129 130/130/130 128/128/128
f 111/111/111 112/112/112 130/130/130
f 129/129/129 109/109/109 131/131/131
f 129/129/129 131/131/131 130/130/130
f 109/109/109 110/110/110 131/131/131
f 132/132/132 111/111/111 130/130/130
f 131/131/131 132/132/132 130/130/130
f 110/110/110 111/111/111 132/132/132
f 131/131/131 110/110/110 132/132/132
